<svg width="312" height="32" viewBox="0 0 312 32" fill="none" xmlns="http://www.w3.org/2000/svg">
<g clip-path="url(#clip0_4580_2948)">
<path d="M43.7972 12.3579H43.1408C41.5239 12.3579 40.1151 11.7655 40.0831 10.14C40.0511 8.62853 41.3398 7.74745 43.501 7.74745H44.0453L45.6062 7.70188H59.0058V0.744363H39.971C34.0317 0.744363 31.8704 4.71683 31.8704 4.71683C31.8704 4.71683 30.3896 7.40565 30.3896 10.611C30.3896 14.0669 32.0065 16.376 32.951 17.1431C33.8956 17.9103 35.3764 19.0648 37.2735 19.0648H48.2958C50.9933 19.1484 51.7937 20.4244 51.7137 21.8828C51.6257 23.5082 50.2729 24.4425 48.656 24.4425H32.1906V31.043H49.2883C55.0516 31.0202 60.1025 31.2936 60.6308 21.2827C61.079 12.7453 51.8098 12.4035 51.8098 12.4035H45.4301L43.8132 12.3655L43.7972 12.3579Z" fill="#222222"/>
<path d="M77.2402 18.8293L75.4632 13.6872L74.6547 11.2262L71.645 18.8293H77.2402ZM69.7159 1.21529H79.2814L91.7364 31.1113H81.5867L79.5375 25.202H69.2357L66.9464 31.1113H57.2849L69.7159 1.21529Z" fill="#222222"/>
<path d="M100.173 31.1113V7.51959H110.027V1.2001H82.8594V7.51959H92.4489V31.1113H100.173Z" fill="#222222"/>
<path d="M116.31 12.677C116.31 12.677 116.398 7.70947 122.082 7.87658H133.184V1.21529C133.184 1.21529 122.69 0.979825 118.352 1.21529C113.821 1.46594 110.803 3.82815 108.85 7.70188C107.609 10.1704 107.297 12.9352 107.521 16.376V17.3026C107.561 19.8471 107.938 22.817 108.85 24.6323C110.803 28.5061 113.813 31.1341 118.352 31.1189C123.482 31.1037 134.425 31.1189 134.425 31.1189V24.4652H122.082C116.398 24.6323 116.31 19.6649 116.31 19.6649C116.31 19.6649 115.846 15.4721 116.31 12.6694" fill="#222222"/>
<path d="M148.032 24.5184C150.586 24.5184 155.669 22.9613 155.669 16.2772C155.669 9.59317 150.586 8.03608 148.032 8.03608C145.479 8.03608 140.396 9.59317 140.396 16.2772C140.396 22.9613 145.479 24.5184 148.032 24.5184ZM148.032 0.554474C157.934 0.554474 164.554 7.11702 164.554 16.2772C164.554 25.4375 157.934 32 148.032 32C138.131 32 131.511 25.4451 131.511 16.2772C131.511 7.10943 138.131 0.554474 148.032 0.554474Z" fill="#222222"/>
<path d="M164.89 2.57489H165.25C165.666 2.57489 165.875 2.45336 165.875 2.15713C165.875 1.86091 165.658 1.72419 165.218 1.72419H164.898V2.57489H164.89ZM165.338 1.26846C166.203 1.26846 166.627 1.54949 166.627 2.11156C166.627 2.49893 166.379 2.78756 165.963 2.8939L166.643 4.20033H165.827L165.25 3.00024H164.89V4.20033H164.154V1.26846H165.338ZM163.529 1.04059C163.041 1.51151 162.769 2.14194 162.769 2.78756C162.769 3.43318 163.017 4.03323 163.489 4.49656C163.969 4.96748 164.61 5.23333 165.274 5.23333C165.939 5.23333 166.563 4.97508 167.059 4.51935C167.532 4.07881 167.796 3.46357 167.796 2.84073C167.796 2.14194 167.556 1.55709 167.083 1.08616C166.595 0.600048 165.979 0.349395 165.282 0.349395C164.586 0.349395 164.002 0.584857 163.529 1.04059ZM167.339 0.843105C167.868 1.3672 168.156 2.0508 168.156 2.79516C168.156 3.53952 167.852 4.24591 167.307 4.7624C166.747 5.29409 166.019 5.57513 165.274 5.57513C164.53 5.57513 163.785 5.2789 163.233 4.73202C162.697 4.20033 162.409 3.51674 162.409 2.79516C162.409 2.29385 162.545 1.81533 162.825 1.34441C163.337 0.501306 164.234 0 165.266 0C166.059 0 166.779 0.288631 167.331 0.83551" fill="#222222"/>
<path d="M262.647 20.8967L270.254 1.00524H279.804L267.526 30.911H258.071L245.752 1.00524H255.786L262.647 20.8967Z" fill="#222222"/>
<path d="M186.39 1.00524H198.137L207.901 19.3965V1.00524H217.181V31.1166H205.149L195.258 12.3979V31.1166H186.39V1.00524Z" fill="#222222"/>
<path d="M233.061 31.7259C229.413 31.7259 228.659 31.5507 227.152 31.0633C221.758 29.3194 219.038 24.971 219.038 21.6735V1.00524H227.755V20.9196C227.755 20.9196 227.779 24.2247 233.053 24.2247C238.328 24.2247 238.352 20.9196 238.352 20.9196V1.00524H247.069V21.6811C247.069 25.0014 244.317 29.3803 238.852 31.1014C237.368 31.5659 236.694 31.7259 233.045 31.7259" fill="#222222"/>
<path d="M308.764 2.58163H309.121C309.533 2.58163 309.739 2.45978 309.739 2.16278C309.739 1.86578 309.525 1.7287 309.089 1.7287H308.772V2.58163H308.764ZM309.208 1.27178C310.065 1.27178 310.485 1.55355 310.485 2.11709C310.485 2.50547 310.239 2.79486 309.827 2.90148L310.501 4.21133H309.692L309.121 3.00809H308.764V4.21133H308.034V1.27178H309.208ZM307.415 1.04331C306.932 1.51547 306.662 2.14755 306.662 2.79486C306.662 3.44217 306.908 4.04379 307.376 4.50833C307.852 4.98049 308.486 5.24703 309.145 5.24703C309.803 5.24703 310.422 4.9881 310.913 4.53118C311.381 4.08948 311.643 3.47263 311.643 2.84817C311.643 2.14755 311.405 1.56116 310.937 1.08901C310.453 0.601618 309.843 0.350309 309.152 0.350309C308.462 0.350309 307.883 0.586388 307.415 1.04331ZM311.191 0.845312C311.714 1.37078 312 2.05616 312 2.80248C312 3.54879 311.699 4.25702 311.159 4.77487C310.604 5.30795 309.882 5.58972 309.145 5.58972C308.407 5.58972 307.669 5.29272 307.122 4.74441C306.59 4.21133 306.305 3.52594 306.305 2.80248C306.305 2.29986 306.44 1.82009 306.717 1.34793C307.225 0.502618 308.113 0 309.137 0C309.922 0 310.636 0.289386 311.183 0.837697" fill="#222222"/>
<path d="M291.9 24.5217C294.423 24.5217 299.444 22.9681 299.444 16.2818C299.444 9.59544 294.423 8.04189 291.9 8.04189C289.378 8.04189 284.349 9.59544 284.349 16.2818C284.349 22.9681 289.37 24.5217 291.9 24.5217ZM291.9 0.548311C301.689 0.548311 308.232 7.10519 308.232 16.2742C308.232 25.4431 301.689 32 291.9 32C282.112 32 275.569 25.4431 275.569 16.2742C275.569 7.10519 282.112 0.555926 291.9 0.555926" fill="#222222"/>
<path d="M22.8978 6.97233C22.8821 6.49803 22.9843 5.6838 23.2595 5.10672C23.3066 5.01186 23.2437 4.90909 23.1415 4.90909L0.422641 4.89328C0.367612 4.89328 0.312584 4.9249 0.296861 4.98024C0.061025 5.64427 -0.0411707 6.51384 0.021719 7.00396C0.0295802 7.0672 0.0924698 7.11463 0.15536 7.11463H22.7721C22.8507 7.11463 22.9057 7.05139 22.9057 6.97233" fill="#AD1F2A"/>
<path d="M3.26054 0.687747H25.8222C25.9873 0.687747 26.1445 0.624506 26.2624 0.513834C26.4904 0.29249 26.8049 0 26.8049 0H4.06238C3.34701 0.268775 3.26054 0.695652 3.26054 0.695652" fill="#AD1F2A"/>
<path d="M1.14587 3.2253H24.0141C24.0534 3.2253 24.0927 3.20158 24.1085 3.16206C24.2971 2.75099 24.4937 2.37945 24.6037 2.18182C24.643 2.11067 24.588 2.02372 24.5094 2.02372H1.97916C1.97916 2.02372 1.93985 2.02372 1.92413 2.03953C1.40529 2.33202 1.15373 2.83004 1.05154 3.0751C1.02009 3.14625 1.07512 3.21739 1.14587 3.21739" fill="#AD1F2A"/>
<path d="M0.532698 8.69565H22.2532C22.2532 8.69565 22.7092 8.86166 22.7799 9.65218C22.8507 10.4427 23.6289 12.5059 25.5235 14.253C26.341 15.004 27.2136 15.6917 27.9526 16.5376C28.9352 17.6601 29.627 18.9881 29.9886 20.4348C30.5232 22.5771 30.6018 24.9881 29.7371 27.0514C28.8959 29.0593 27.3394 30.7194 25.6178 32L4.65983 31.8656C4.17244 31.8656 3.95232 31.2727 4.29822 30.9328C6.48363 28.8538 8.34674 26.3478 8.22882 23.2648C8.15807 21.3281 7.82004 19.17 6.59369 17.6127C5.39092 16.0791 3.82654 14.9091 2.45869 13.5336C1.45246 12.5217 0.564142 11.3676 0.108192 10C-0.0333095 9.58894 -0.151228 8.71147 0.540559 8.71147" fill="#AD1F2A"/>
<rect x="174.234" width="4.05195" height="32" fill="#222222"/>
</g>
<defs>
<clipPath id="clip0_4580_2948">
<rect width="312" height="32" fill="white"/>
</clipPath>
</defs>
</svg>
