<svg width="106" height="18" viewBox="0 0 106 18" fill="none" xmlns="http://www.w3.org/2000/svg">
<path d="M13.0368 7.50225H4.31068V0.96496H0V17.2944H4.31068V10.0906H13.0368V17.2944H17.3739V0.96496H13.0368V7.50225Z" fill="#0D0D0D"/>
<path d="M25.3029 0.96496H20.939V17.2938H25.3029V0.96496Z" fill="#0D0D0D"/>
<path d="M106 0.96496H101.637V17.2938H106V0.96496Z" fill="#0D0D0D"/>
<path d="M43.8471 0.96496H26.8984V3.68623H33.2309V17.2944H37.5146V3.68623H43.8471V0.96496Z" fill="#0D0D0D"/>
<path d="M47.8658 0.991949L40.1235 17.2944H44.9654L46.4824 13.6389H54.6498L56.1404 17.2944H61.0104L53.3203 0.991949H47.8658ZM47.5723 11.0506L50.5792 3.76652L53.5592 11.0506H47.5723Z" fill="#0D0D0D"/>
<path d="M70.0022 15.1866C68.326 15.1866 64.8932 14.8404 64.8411 9.18347C64.7878 3.84752 67.9271 3.10073 70.0022 3.10073C72.051 3.12648 74.0997 4.08767 74.126 6.51489H78.5433C78.4888 3.55287 75.9352 0.725001 70.0016 0.671701C65.5855 0.645351 60.237 2.45933 60.2101 9.10262C60.1837 15.6926 65.6382 17.7467 70.0016 17.6401C74.0188 17.5072 78.4888 16.3867 78.6763 11.4238L74.2326 11.4502C74.0997 14.5458 71.6258 15.159 70.0028 15.1854L70.0022 15.1866Z" fill="#0D0D0D"/>
<path d="M93.8414 7.50225H85.1135V0.96496H80.8052V17.2944H85.1135V10.0906H93.8414V17.2944H98.1509V0.96496H93.8414V7.50225Z" fill="#0D0D0D"/>
</svg>
