<?xml version="1.0" encoding="utf-8"?>
<!-- Generator: Adobe Illustrator 25.4.1, SVG Export Plug-In . SVG Version: 6.00 Build 0)  -->
<svg version="1.1" id="Layer_1" xmlns="http://www.w3.org/2000/svg" xmlns:xlink="http://www.w3.org/1999/xlink" x="0px" y="0px"
	 viewBox="0 0 260 80" style="enable-background:new 0 0 260 80;" xml:space="preserve">
<style type="text/css">
	.st0{clip-path:url(#SVGID_00000029740332596346724620000008775291537688679310_);}
	.st1{fill:url(#SVGID_00000104691226116633197360000008310832474428140956_);}
	.st2{clip-path:url(#SVGID_00000090253454217441880040000003852467915780750004_);}
	.st3{fill:url(#SVGID_00000039111647786224605040000004101636919701354685_);}
	.st4{fill-rule:evenodd;clip-rule:evenodd;fill:#007934;}
	.st5{fill-rule:evenodd;clip-rule:evenodd;fill:#00853F;}
	.st6{fill:#007934;}
</style>
<g>
	<g>
		<defs>
			<path id="SVGID_1_" d="M129.9,20.5L129.9,20.5c0,0-6.5,3.7-6.5,10.8c-0.1,3.8,2.2,7.2,5.7,8.6v8.5l-2.4-1.9
				c0.4-3.3-0.9-6.6-3.4-8.8c-4.7-4.2-12.2-3-12.2-3c-0.5,4.3,1.1,8.5,4.3,11.4c2.8,2.7,7,3.4,10.6,1.8l3,2.4v9.3h1.6v-9.3l3-2.4
				c3.6,1.7,7.8,1,10.6-1.8c3.2-2.9,4.8-7.1,4.3-11.4c0,0-7.6-1.2-12.3,3c-2.5,2.2-3.7,5.5-3.4,8.8l-2.3,1.9v-8.5
				c3.5-1.4,5.8-4.8,5.7-8.6C136.4,24.2,130,20.5,129.9,20.5L129.9,20.5L129.9,20.5z"/>
		</defs>
		<clipPath id="SVGID_00000003085739299262420690000016191048387263829647_">
			<use xlink:href="#SVGID_1_"  style="overflow:visible;"/>
		</clipPath>
		<g style="clip-path:url(#SVGID_00000003085739299262420690000016191048387263829647_);">
			
				<linearGradient id="SVGID_00000018230559547895068360000000169968441882270090_" gradientUnits="userSpaceOnUse" x1="-1091.5393" y1="251.9903" x2="-1091.1179" y2="251.9903" gradientTransform="matrix(94.17 0 0 94.17 102900.9219 -23689.873)">
				<stop  offset="0" style="stop-color:#39B54A"/>
				<stop  offset="0.26" style="stop-color:#289D45"/>
				<stop  offset="0.75" style="stop-color:#0B763B"/>
				<stop  offset="1" style="stop-color:#006738"/>
			</linearGradient>
			
				<rect x="110.1" y="20.5" style="fill:url(#SVGID_00000018230559547895068360000000169968441882270090_);" width="39.7" height="39.2"/>
		</g>
	</g>
	<g>
		<defs>
			<path id="SVGID_00000163040027415647748720000000873489574704610190_" d="M108.5,40c0-11.8,9.6-21.5,21.4-21.5
				c11.8,0,21.5,9.6,21.5,21.4c0,11.8-9.6,21.5-21.4,21.5l0,0C118.1,61.4,108.5,51.8,108.5,40 M115.9,8.5l-7.9,5
				c-1.3,0.9-1.7,2.6-0.9,3.9l2.5,5.9c-2,2.4-3.6,5.2-4.6,8.2l-6.3,1c-1.6,0-2.9,1.3-2.9,2.9v9.4c0,1.6,1.3,2.8,2.8,2.8l6.3,1
				c1,3,2.6,5.8,4.6,8.2l-2.5,5.9c-0.8,1.3-0.4,3.1,0.9,3.9l8,5c1.3,0.8,3.1,0.5,3.9-0.9l4.2-4.9c3.8,0.8,7.8,0.8,11.7-0.1l4.2,4.8
				c0.8,1.3,2.6,1.7,3.9,0.9l7.9-5c1.3-0.8,1.7-2.6,0.9-3.9l-2.5-5.9c2-2.4,3.5-5.1,4.5-8.1l6.3-1c1.6,0,2.9-1.3,2.9-2.9
				c0,0,0,0,0,0v-9.4c0-1.6-1.3-2.9-2.9-2.9l-6.3-1c-1-2.9-2.5-5.7-4.5-8.1l2.5-5.9c0.8-1.3,0.5-3.1-0.9-3.9c0,0,0,0,0,0l-7.9-5
				c-1.3-0.8-3.1-0.5-3.9,0.9l-4.2,4.9c-1.9-0.4-3.9-0.7-5.9-0.7c-1.9,0-3.9,0.2-5.8,0.6l-4.2-4.9C119,8.1,117.3,7.7,115.9,8.5"/>
		</defs>
		<clipPath id="SVGID_00000137825797281279795550000016993937088839785138_">
			<use xlink:href="#SVGID_00000163040027415647748720000000873489574704610190_"  style="overflow:visible;"/>
		</clipPath>
		<g style="clip-path:url(#SVGID_00000137825797281279795550000016993937088839785138_);">
			
				<linearGradient id="SVGID_00000044171605461114070010000011201406425286245028_" gradientUnits="userSpaceOnUse" x1="-1103.4835" y1="252.0466" x2="-1103.0713" y2="252.0466" gradientTransform="matrix(-0.1864 -152.59 152.59 -0.1864 -38535.5508 -168261.5625)">
				<stop  offset="0" style="stop-color:#1B75BC"/>
				<stop  offset="0.45" style="stop-color:#175389"/>
				<stop  offset="0.81" style="stop-color:#143D68"/>
				<stop  offset="1" style="stop-color:#13355B"/>
			</linearGradient>
			<polygon style="fill:url(#SVGID_00000044171605461114070010000011201406425286245028_);" points="95.8,7.8 164,7.7 164,72.3 
				95.9,72.4 			"/>
		</g>
	</g>
	<path class="st4" d="M8.3,41.3l-2.1-6.1L4,41.3H8.3z M5.3,33.1h2.1l5,13.9h-2.1l-1.4-4.2H3.4L1.9,47H0L5.3,33.1z"/>
	<path class="st4" d="M21.6,39.5c0.7,0,1.5-0.1,2.1-0.5c0.6-0.5,0.8-1.2,0.7-1.9c0.1-0.8-0.3-1.6-1.1-2c-0.5-0.2-1-0.3-1.5-0.3h-4.6
		v4.8H21.6z M15.3,33.1h6.4c0.9,0,1.8,0.1,2.6,0.5c1.3,0.6,2,1.9,1.9,3.3c0,0.7-0.2,1.4-0.5,2c-0.4,0.5-0.9,1-1.4,1.3
		c0.5,0.2,0.9,0.5,1.2,0.9c0.3,0.5,0.5,1.1,0.5,1.8l0.1,1.9c0,0.4,0,0.8,0.1,1.2c0,0.4,0.3,0.7,0.6,0.9v0.3h-2.3
		c-0.1-0.1-0.1-0.3-0.2-0.5c0-0.4-0.1-0.7-0.1-1.1l-0.1-2.3c0-0.8-0.3-1.5-1-1.8c-0.5-0.2-1.1-0.3-1.7-0.3h-4.3v6h-1.9V33.1z"/>
	<path class="st4" d="M37.2,41.3l-2.1-6.1l-2.2,6.1H37.2z M34.1,33.1h2.1l5,13.9h-2.1l-1.4-4.2h-5.5L30.8,47h-1.9L34.1,33.1z"/>
	<path class="st4" d="M45.2,42.5c0,0.7,0.2,1.3,0.6,1.9c0.6,0.9,1.7,1.3,3.3,1.3c0.7,0,1.3-0.1,1.9-0.3c1-0.2,1.7-1.1,1.7-2.1
		c0.1-0.6-0.2-1.2-0.7-1.6c-0.7-0.4-1.5-0.7-2.3-0.8l-1.9-0.4c-0.9-0.1-1.8-0.4-2.6-0.9c-0.9-0.6-1.4-1.6-1.3-2.6
		c0-1.2,0.4-2.3,1.3-3.1c1-0.9,2.3-1.3,3.7-1.2c1.3,0,2.7,0.3,3.8,1.1c1,0.8,1.6,2.1,1.5,3.4h-1.8c0-0.6-0.2-1.2-0.6-1.8
		c-0.8-0.8-1.8-1.2-2.9-1.1c-0.9-0.1-1.7,0.2-2.4,0.7c-0.5,0.4-0.7,1-0.7,1.6c0,0.6,0.3,1.2,0.9,1.5c0.8,0.3,1.7,0.6,2.5,0.8
		l1.9,0.4c0.8,0.1,1.5,0.4,2.2,0.9c0.9,0.7,1.4,1.8,1.3,2.9c0.1,1.3-0.5,2.6-1.7,3.3c-1.2,0.7-2.5,1-3.9,1c-1.5,0.1-2.9-0.4-4.1-1.3
		c-1-0.9-1.5-2.2-1.4-3.6L45.2,42.5z"/>
	<path class="st5" d="M67.9,34.1c0.9,0.8,1.5,1.9,1.6,3.2h-1.8c-0.2-0.8-0.6-1.6-1.2-2.1c-0.8-0.6-1.7-0.8-2.6-0.8
		c-1.3,0-2.5,0.5-3.3,1.4c-0.9,1.3-1.4,2.8-1.3,4.4c-0.1,1.4,0.3,2.8,1.1,4c0.8,1,2.1,1.6,3.4,1.5c1.3,0.1,2.5-0.5,3.2-1.6
		c0.4-0.7,0.7-1.4,0.9-2.2h1.8c-0.1,1.4-0.7,2.7-1.6,3.7c-1.2,1.2-2.8,1.8-4.5,1.8c-1.5,0-2.9-0.5-4.1-1.5c-1.4-1.3-2.2-3.3-2.2-6
		c-0.1-1.8,0.5-3.6,1.6-5c1.2-1.4,3-2.2,4.9-2.1C65.3,32.6,66.7,33.1,67.9,34.1"/>
	<path class="st4" d="M84.3,35.1c1,1.4,1.4,3,1.4,4.7c0.1,1.9-0.5,3.7-1.6,5.2c-2.5,2.9-7,3.3-9.9,0.7c-0.2-0.1-0.3-0.3-0.4-0.4
		c-1.1-1.5-1.7-3.3-1.6-5.2c0-1.7,0.4-3.4,1.4-4.8c1.2-1.7,3.2-2.7,5.3-2.6C81.3,32.8,83.2,33.5,84.3,35.1 M82.7,44
		c0.8-1.2,1.1-2.7,1.1-4.1c0.1-1.4-0.4-2.8-1.3-3.9c-0.9-1-2.2-1.6-3.5-1.5c-1.3,0-2.6,0.5-3.5,1.5c-1,1.2-1.5,2.8-1.4,4.4
		c0,1.4,0.4,2.8,1.2,3.9c0.9,1.1,2.3,1.7,3.8,1.6C80.5,45.9,81.9,45.2,82.7,44"/>
	<rect x="257.3" y="26.2" class="st6" width="2.1" height="20.8"/>
	<rect x="245" y="26.2" class="st6" width="2.1" height="20.8"/>
	<rect x="174.1" y="45" class="st6" width="65.8" height="2.1"/>
	<rect x="239.2" y="38.1" class="st6" width="2.1" height="9"/>
	<rect x="234.3" y="39.6" class="st6" width="2.1" height="7.5"/>
	<rect x="229.3" y="41.1" class="st6" width="2" height="6"/>
	<polygon class="st4" points="207.1,39.6 209.1,40.2 209.1,47.1 207.1,47.1 	"/>
	<path class="st4" d="M208.8,41.4h-21.9l0.1-1.3l16.1-8l0.3,1.1l-8.9,5.7l-1,0.4h14.1c0.5-0.1,1,0.1,1.4,0.4
		C209.4,40.4,208.8,41.4,208.8,41.4"/>
	<path class="st4" d="M174,47c0,0-0.9-4.8,2.9-7.6c3.8-2.8,5.7-2.5,5.7-2.5v13.5c0,0-0.1,2.8-3.9,2.8s-4.4-1.4-4.4-1.4l0.8-0.5
		c1.1,0.1,2.3,0.2,3.4,0.2c1.4,0,1.4-1.7,1.4-1.7v-9.6c0,0-1.3,0.3-2.5,2.3c-1.4,2.3-0.9,2.8-0.9,2.8L174,47z"/>
	<rect x="251.5" y="39.8" class="st6" width="2.1" height="13.4"/>
	<rect x="249.6" y="51.3" class="st6" width="3.2" height="2"/>
	<path class="st6" d="M254.5,23.5v-1.3h1.7c-0.3-0.3-0.5-0.8-0.5-1.2c0-0.6,0.3-1.2,0.8-1.5c0.5-0.3,1.1-0.5,1.7-0.4
		c0.7,0,1.3,0.5,1.8,1.6l-1.3,0.1c-0.1-0.1-0.1-0.2-0.2-0.3c-0.1,0-0.2,0-0.2-0.1c-0.8,0-1.2,0.3-1.2,0.7c0,0.2,0.1,0.4,0.3,0.6
		c0.2,0.3,0.4,0.5,0.4,0.6h2v1.3L254.5,23.5z"/>
</g>
</svg>
