<svg width="183" height="50" viewBox="0 0 183 50" fill="none" xmlns="http://www.w3.org/2000/svg">
<path d="M182.5 26.9285C182.5 27.3515 182.352 27.7613 182.082 28.0882C181.813 28.415 181.437 28.6387 181.02 28.7212C180.603 28.8036 180.17 28.7396 179.795 28.5402C179.42 28.3407 179.127 28.0181 178.964 27.6273C178.801 27.2366 178.78 26.8018 178.903 26.397C179.027 25.9923 179.287 25.6426 179.641 25.4077C179.994 25.1727 180.419 25.0669 180.842 25.1083C181.265 25.1498 181.661 25.3359 181.961 25.6349C182.132 25.8048 182.268 26.0065 182.36 26.2284C182.452 26.4504 182.5 26.6883 182.5 26.9285ZM165.882 43.572C165.882 43.9338 165.774 44.2875 165.572 44.5883C165.37 44.8891 165.083 45.1236 164.747 45.2621C164.411 45.4005 164.041 45.4367 163.685 45.3662C163.328 45.2956 163 45.1213 162.743 44.8655C162.486 44.6097 162.311 44.2838 162.24 43.9289C162.169 43.5741 162.205 43.2063 162.345 42.872C162.484 42.5378 162.719 42.2521 163.022 42.0511C163.324 41.8501 163.68 41.7428 164.043 41.7428C164.531 41.7428 164.999 41.9355 165.344 42.2785C165.689 42.6216 165.882 43.0869 165.882 43.572ZM177.036 32.4707C177.036 32.8325 176.928 33.1862 176.726 33.487C176.524 33.7878 176.237 34.0223 175.901 34.1608C175.565 34.2992 175.195 34.3354 174.839 34.2649C174.482 34.1943 174.154 34.02 173.897 33.7642C173.64 33.5084 173.465 33.1825 173.394 32.8276C173.323 32.4728 173.359 32.105 173.498 31.7707C173.638 31.4364 173.873 31.1508 174.176 30.9498C174.478 30.7488 174.834 30.6415 175.197 30.6415C175.439 30.6415 175.678 30.6888 175.901 30.7807C176.124 30.8726 176.327 31.0074 176.498 31.1772C176.668 31.3471 176.804 31.5488 176.896 31.7707C176.989 31.9926 177.036 32.2305 177.036 32.4707ZM177.036 26.9285C177.036 27.2903 176.928 27.644 176.726 27.9448C176.524 28.2456 176.237 28.4801 175.901 28.6185C175.565 28.757 175.195 28.7932 174.839 28.7226C174.482 28.6521 174.154 28.4778 173.897 28.222C173.64 27.9662 173.465 27.6402 173.394 27.2854C173.323 26.9305 173.359 26.5627 173.498 26.2285C173.638 25.8942 173.873 25.6086 174.176 25.4075C174.478 25.2065 174.834 25.0993 175.197 25.0993C175.439 25.0993 175.678 25.1466 175.901 25.2385C176.124 25.3304 176.327 25.4652 176.498 25.635C176.668 25.8049 176.804 26.0066 176.896 26.2285C176.989 26.4504 177.036 26.6883 177.036 26.9285ZM177.036 21.497C177.036 21.8588 176.928 22.2125 176.726 22.5133C176.524 22.8141 176.237 23.0486 175.901 23.187C175.565 23.3255 175.195 23.3617 174.839 23.2911C174.482 23.2205 174.154 23.0463 173.897 22.7905C173.64 22.5347 173.465 22.2087 173.394 21.8539C173.323 21.499 173.359 21.1312 173.498 20.797C173.638 20.4627 173.873 20.177 174.176 19.976C174.478 19.775 174.834 19.6677 175.197 19.6677C175.685 19.6677 176.152 19.8603 176.497 20.2032C176.842 20.546 177.036 21.0111 177.036 21.4961V21.497ZM171.343 37.9135C171.343 38.2753 171.235 38.629 171.033 38.9298C170.831 39.2306 170.544 39.4651 170.208 39.6035C169.872 39.742 169.502 39.7782 169.146 39.7076C168.789 39.637 168.461 39.4628 168.204 39.207C167.947 38.9512 167.772 38.6252 167.701 38.2704C167.63 37.9155 167.666 37.5477 167.806 37.2135C167.945 36.8792 168.18 36.5935 168.483 36.3925C168.785 36.1915 169.141 36.0842 169.504 36.0842C169.991 36.0842 170.459 36.2764 170.803 36.6187C171.148 36.9609 171.342 37.4253 171.343 37.9098V37.9135ZM165.882 37.9135C165.882 38.2753 165.774 38.629 165.572 38.9298C165.37 39.2306 165.083 39.4651 164.747 39.6035C164.411 39.742 164.041 39.7782 163.685 39.7076C163.328 39.637 163 39.4628 162.743 39.207C162.486 38.9512 162.311 38.6252 162.24 38.2704C162.169 37.9155 162.205 37.5477 162.345 37.2135C162.484 36.8792 162.719 36.5935 163.022 36.3925C163.324 36.1915 163.68 36.0842 164.043 36.0842C164.53 36.0842 164.998 36.2764 165.342 36.6187C165.687 36.9609 165.881 37.4253 165.882 37.9098V37.9135ZM171.343 32.4726C171.343 32.8344 171.235 33.1881 171.033 33.4889C170.831 33.7897 170.544 34.0242 170.208 34.1626C169.872 34.3011 169.502 34.3373 169.146 34.2667C168.789 34.1961 168.461 34.0219 168.204 33.7661C167.947 33.5103 167.772 33.1843 167.701 32.8295C167.63 32.4746 167.666 32.1068 167.806 31.7726C167.945 31.4383 168.18 31.1526 168.483 30.9516C168.785 30.7506 169.141 30.6433 169.504 30.6433C169.992 30.6433 170.459 30.8358 170.804 31.1785C171.149 31.5211 171.343 31.9859 171.343 32.4707V32.4726ZM165.882 32.4726C165.882 32.8344 165.774 33.1881 165.572 33.4889C165.37 33.7897 165.083 34.0242 164.747 34.1626C164.411 34.3011 164.041 34.3373 163.685 34.2667C163.328 34.1961 163 34.0219 162.743 33.7661C162.486 33.5103 162.311 33.1843 162.24 32.8295C162.169 32.4746 162.205 32.1068 162.345 31.7726C162.484 31.4383 162.719 31.1526 163.022 30.9516C163.324 30.7506 163.68 30.6433 164.043 30.6433C164.531 30.6433 164.998 30.8358 165.343 31.1785C165.688 31.5211 165.882 31.9859 165.882 32.4707V32.4726ZM171.343 26.9304C171.343 27.2922 171.235 27.6459 171.033 27.9467C170.831 28.2475 170.544 28.482 170.208 28.6204C169.872 28.7589 169.502 28.7951 169.146 28.7245C168.789 28.6539 168.461 28.4797 168.204 28.2239C167.947 27.9681 167.772 27.6421 167.701 27.2873C167.63 26.9324 167.666 26.5646 167.806 26.2304C167.945 25.8961 168.18 25.6104 168.483 25.4094C168.785 25.2084 169.141 25.1011 169.504 25.1011C169.992 25.1011 170.459 25.2936 170.804 25.6362C171.149 25.9789 171.343 26.4437 171.343 26.9285V26.9304ZM165.882 26.9304C165.882 27.2922 165.774 27.6459 165.572 27.9467C165.37 28.2475 165.083 28.482 164.747 28.6204C164.411 28.7589 164.041 28.7951 163.685 28.7245C163.328 28.6539 163 28.4797 162.743 28.2239C162.486 27.9681 162.311 27.6421 162.24 27.2873C162.169 26.9324 162.205 26.5646 162.345 26.2304C162.484 25.8961 162.719 25.6104 163.022 25.4094C163.324 25.2084 163.68 25.1011 164.043 25.1011C164.531 25.1011 164.998 25.2936 165.343 25.6362C165.688 25.9789 165.882 26.4437 165.882 26.9285V26.9304ZM171.343 21.4989C171.343 21.8607 171.235 22.2144 171.033 22.5152C170.831 22.816 170.544 23.0505 170.208 23.1889C169.872 23.3274 169.502 23.3636 169.146 23.293C168.789 23.2224 168.461 23.0482 168.204 22.7924C167.947 22.5365 167.772 22.2106 167.701 21.8558C167.63 21.5009 167.666 21.1331 167.806 20.7989C167.945 20.4646 168.18 20.1789 168.483 19.9779C168.785 19.7769 169.141 19.6696 169.504 19.6696C169.992 19.6696 170.459 19.862 170.804 20.2044C171.148 20.5469 171.343 21.0114 171.343 21.4961V21.4989ZM171.343 16.0664C171.343 16.4282 171.235 16.7819 171.033 17.0827C170.831 17.3835 170.544 17.618 170.208 17.7565C169.872 17.8949 169.502 17.9311 169.146 17.8606C168.789 17.79 168.461 17.6157 168.204 17.3599C167.947 17.1041 167.772 16.7781 167.701 16.4233C167.63 16.0685 167.666 15.7007 167.806 15.3664C167.945 15.0321 168.18 14.7465 168.483 14.5455C168.785 14.3444 169.141 14.2372 169.504 14.2372C169.992 14.2372 170.459 14.4296 170.804 14.7723C171.149 15.1149 171.343 15.5797 171.343 16.0646V16.0664ZM165.882 10.5223C165.882 10.9453 165.735 11.3551 165.465 11.682C165.195 12.0089 164.82 12.2326 164.403 12.315C163.985 12.3974 163.553 12.3334 163.178 12.134C162.803 11.9345 162.509 11.6119 162.346 11.2212C162.184 10.8304 162.162 10.3956 162.286 9.99084C162.409 9.58611 162.67 9.23646 163.023 9.00149C163.377 8.76651 163.801 8.66072 164.224 8.70216C164.648 8.74359 165.043 8.92969 165.344 9.22873C165.515 9.39862 165.65 9.6003 165.742 9.82226C165.835 10.0442 165.882 10.2821 165.882 10.5223ZM165.882 21.4979C165.883 21.8599 165.776 22.2138 165.574 22.515C165.372 22.8162 165.085 23.0511 164.749 23.19C164.413 23.3289 164.043 23.3655 163.686 23.2952C163.33 23.225 163.002 23.051 162.744 22.7952C162.487 22.5395 162.311 22.2136 162.24 21.8587C162.169 21.5038 162.205 21.1358 162.344 20.8014C162.483 20.467 162.719 20.1811 163.022 19.98C163.324 19.7788 163.68 19.6715 164.043 19.6715C164.531 19.6715 164.998 19.8638 165.343 20.2063C165.688 20.5487 165.882 21.0133 165.882 21.4979ZM165.882 16.0655C165.882 16.4273 165.774 16.781 165.572 17.0818C165.37 17.3826 165.083 17.6171 164.747 17.7555C164.411 17.894 164.041 17.9302 163.685 17.8596C163.328 17.789 163 17.6148 162.743 17.359C162.486 17.1032 162.311 16.7772 162.24 16.4224C162.169 16.0675 162.205 15.6997 162.345 15.3655C162.484 15.0312 162.719 14.7455 163.022 14.5445C163.324 14.3435 163.68 14.2362 164.043 14.2362C164.531 14.2362 164.999 14.4288 165.343 14.7717C165.688 15.1145 165.882 15.5796 165.882 16.0646V16.0655Z" fill="#48A035"/>
<path d="M90.1166 3.64923H91.6179C91.6834 3.65127 91.7487 3.63993 91.8097 3.61589C91.8707 3.59185 91.9261 3.55563 91.9725 3.50946C92.0171 3.46675 92.0524 3.41543 92.0764 3.35866C92.1004 3.30188 92.1125 3.24084 92.112 3.17925V1.51509C92.1144 1.4501 92.1033 1.38534 92.0794 1.32481C92.0555 1.26428 92.0193 1.20929 91.9732 1.16327C91.927 1.11724 91.8718 1.08117 91.811 1.05729C91.7502 1.03341 91.6851 1.02224 91.6198 1.02447H90.1176C89.9861 1.02515 89.8596 1.07466 89.763 1.1633C89.7112 1.20627 89.6698 1.2603 89.6419 1.32136C89.614 1.38242 89.6003 1.44896 89.6017 1.51603V3.17925C89.602 3.24279 89.6167 3.30546 89.6446 3.36261C89.6725 3.41977 89.713 3.46996 89.763 3.50946C89.8596 3.59837 89.986 3.64821 90.1176 3.64923H90.1166ZM86.1447 3.64923H87.6243C87.7584 3.64705 87.8874 3.59751 87.9883 3.50946C88.0408 3.47156 88.0837 3.42195 88.1135 3.36461C88.1433 3.30727 88.1591 3.2438 88.1599 3.17925V1.51509C88.1614 1.44802 88.1476 1.38149 88.1197 1.32042C88.0918 1.25936 88.0504 1.20533 87.9986 1.16237C87.8947 1.071 87.7601 1.02149 87.6214 1.02353H86.1428C86.0078 1.02046 85.8771 1.07033 85.7788 1.16237C85.7297 1.20694 85.6909 1.26154 85.6651 1.32242C85.6392 1.3833 85.6268 1.44902 85.6289 1.51509V3.17831C85.6285 3.24084 85.6418 3.30269 85.6677 3.35967C85.6935 3.41665 85.7314 3.46742 85.7788 3.50852C85.8775 3.60184 86.0095 3.65244 86.1456 3.64923H86.1447ZM21.3121 13.0123C21.3121 13.2799 21.1584 13.4435 20.851 13.5029C20.472 13.5649 20.0883 13.5931 19.7043 13.5873C19.3896 13.6168 19.0722 13.5799 18.7728 13.4788C18.4735 13.3778 18.199 13.215 17.9673 13.001C17.569 12.4864 17.378 11.8425 17.4317 11.1952V10.9138C17.4094 10.5665 17.4562 10.2183 17.5695 9.88911C17.6827 9.55991 17.8602 9.2562 18.0918 8.99539C18.3455 8.75692 18.646 8.57316 18.9744 8.45565C19.3028 8.33813 19.6521 8.28938 20.0004 8.31246C20.4385 8.31128 20.8763 8.33289 21.3121 8.37718V13.0123ZM23.6498 6.2074C23.4508 6.14033 23.2464 6.09043 23.0388 6.05824C22.7873 6.01571 22.5182 5.98006 22.2316 5.9513C21.9449 5.92253 21.6485 5.89751 21.3423 5.87625C21.0349 5.85436 20.7454 5.84373 20.4738 5.84436C18.9304 5.74248 17.4066 6.23486 16.218 7.21959C15.7054 7.72559 15.3073 8.33465 15.0504 9.00603C14.7934 9.67741 14.6835 10.3956 14.7281 11.1126V11.5413C14.6807 12.1824 14.7691 12.8262 14.9874 13.4311C15.2057 14.0361 15.5491 14.5888 15.9955 15.0535C16.947 15.8816 18.1864 16.3064 19.4487 16.2374C19.577 16.2374 19.7241 16.2374 19.8882 16.2262C20.0573 16.2188 20.2258 16.201 20.3927 16.1727C20.5588 16.1427 20.7231 16.1039 20.8849 16.0564C21.0226 16.0225 21.1532 15.9647 21.2706 15.8856L21.2499 16.8669C21.2515 17.2152 21.1707 17.559 21.0141 17.8706C20.8675 18.1304 20.6475 18.3417 20.3814 18.4785C20.0521 18.6426 19.696 18.7471 19.3299 18.7871C18.8429 18.8479 18.3524 18.8764 17.8617 18.8725H15.9087C15.651 18.8725 15.5224 18.9932 15.523 19.2346V20.7918C15.5177 20.885 15.54 20.9776 15.5871 21.0582C15.6599 21.1391 15.7613 21.1889 15.87 21.1971C16.0244 21.2342 16.1828 21.2521 16.3415 21.2505C16.5698 21.2571 16.8206 21.2684 17.0959 21.2824C17.3713 21.2965 17.6278 21.3031 17.8786 21.3031H18.4444C19.1551 21.3071 19.8646 21.2443 20.5634 21.1155C21.2029 21.0008 21.8099 20.7499 22.3428 20.38C22.8789 19.9936 23.302 19.4723 23.5687 18.8697C23.898 18.0684 24.0513 17.2065 24.0186 16.3415V6.61265C24.026 6.526 24.003 6.43945 23.9535 6.36781C23.8654 6.29274 23.7617 6.23796 23.6498 6.2074ZM11.5558 0.00102063H9.62641C9.56989 0.00019358 9.51382 0.0110161 9.46172 0.0328121C9.40963 0.0546081 9.36263 0.0869035 9.3237 0.127661C9.28153 0.169465 9.2484 0.219404 9.22634 0.274415C9.20429 0.329426 9.19378 0.38835 9.19545 0.447551V13.6933C9.19545 14.2906 9.19168 14.8453 9.18414 15.3575C9.17659 15.8697 9.16653 16.4738 9.15396 17.1699C8.89329 17.2285 8.62788 17.264 8.36089 17.2759C8.07485 17.2896 7.81018 17.2968 7.56688 17.2974C6.7871 17.3264 6.00966 17.1955 5.28292 16.9128C4.74399 16.6899 4.28197 16.3157 3.95329 15.8359C3.6313 15.3316 3.42075 14.765 3.33562 14.1736C3.22327 13.4577 3.16966 12.734 3.17531 12.0095C3.17531 11.7962 3.18222 11.5367 3.19605 11.2308C3.20988 10.925 3.23094 10.6161 3.25923 10.304C3.25923 10.0195 3.1379 9.87718 2.89523 9.87718H1.24215C1.18742 9.87152 1.1321 9.87755 1.0799 9.89486C1.0277 9.91217 0.97981 9.94036 0.93944 9.97756C0.870779 10.0681 0.826623 10.1747 0.811192 10.2871C0.768442 10.5004 0.732921 10.7455 0.704631 11.0226C0.676341 11.2996 0.651194 11.5811 0.629191 11.8669C0.607187 12.1514 0.589271 12.4191 0.57544 12.6699C0.56161 12.9206 0.554379 13.123 0.553751 13.2768C0.553751 15.5807 1.12207 17.2799 2.2587 18.3744C3.39534 19.4688 5.15562 20.016 7.53953 20.016C8.20953 20.0155 8.87903 19.9801 9.54531 19.91C10.1689 19.8475 10.788 19.7469 11.3993 19.6089C11.6998 19.552 11.8569 19.3956 11.8708 19.1398C11.8852 18.9391 11.8959 18.6652 11.9028 18.3181C11.9097 17.971 11.9204 17.6086 11.9349 17.2308C11.9493 16.8556 11.96 16.4929 11.9669 16.1427C11.9739 15.7924 11.9776 15.5185 11.9783 15.3209V0.448489C11.9806 0.389399 11.9707 0.330463 11.9493 0.275296C11.9279 0.220129 11.8954 0.169891 11.8538 0.127661C11.8154 0.0875278 11.7691 0.0556015 11.7179 0.0338284C11.6667 0.0120553 11.6115 0.000893363 11.5558 0.00102063ZM89.3019 27.5807H83.5854L76.0658 48.9081H80.498L86.4446 32.122L89.7866 41.2974H85.7543L84.3398 45.2946H91.0351L92.3874 48.9081H96.778L89.3019 27.5826V27.5807ZM138.967 48.6792V27.1605H143.574V44.6492H152.721V48.683L138.967 48.6792ZM129.432 48.6792V27.1605H134.036V48.682L129.432 48.6792ZM114.896 48.6792L111.1 33.9016L107.338 48.6792H102.44L96.249 27.1577H101.408L105.204 42.7121L109.323 27.1577H112.923L117.009 42.7121L120.772 27.1577H125.958L119.797 48.682L114.896 48.6792ZM64.5272 44.6455L62.1593 41.8725L65.3382 39.2637L67.7382 42.0779C68.4822 40.8264 68.864 39.3947 68.8415 37.941C68.8415 33.9072 66.2463 30.8744 62.2574 30.8744C58.2685 30.8744 55.7054 33.8987 55.7054 37.9325C55.7054 41.9334 58.2676 44.9991 62.2574 44.9991C63.0278 45.0002 63.7937 44.8815 64.5272 44.6473V44.6455ZM50.9696 37.9325C50.9241 36.4503 51.1857 34.9746 51.7382 33.5974C52.2906 32.2201 53.1222 30.9707 54.181 29.9269C55.2398 28.8831 56.5033 28.0672 57.8927 27.5301C59.2822 26.993 60.7679 26.7462 62.2574 26.8049C68.8094 26.8049 73.5735 31.4513 73.5735 37.9372C73.63 40.7395 72.6194 43.4595 70.7445 45.5516L72.3344 47.3912L69.1234 50L67.3742 48.0038C65.7612 48.7163 64.0147 49.0804 62.2499 49.0723C60.76 49.1299 59.2741 48.8819 57.8847 48.3435C56.4954 47.8051 55.2323 46.988 54.1741 45.9431C53.116 44.8981 52.2854 43.6476 51.7341 42.2694C51.1828 40.8913 50.9226 39.415 50.9696 37.9325ZM28.231 40.0995V27.1605H32.9017V39.941C32.9017 42.9428 34.6528 45.0066 37.9939 45.0066C41.335 45.0066 43.0541 42.9428 43.0541 39.941V27.1605H47.7568V40.0667C47.7568 45.4222 44.5779 49.0723 37.9939 49.0723C31.4098 49.0723 28.231 45.3912 28.231 40.0995ZM19.3111 48.6811V33.6173L13.2089 48.6848H11.2041L5.10658 33.6173V48.6848H0.5V27.1605H6.95676L12.2112 40.1642L17.4656 27.1605H23.9535V48.682L19.3111 48.6811Z" fill="#0C483F"/>
<path d="M149.873 11.6013C149.939 12.2622 149.772 12.9252 149.401 13.4775C149.194 13.6727 148.947 13.8212 148.677 13.9132C148.407 14.0051 148.121 14.0382 147.837 14.0103C147.376 14.0292 146.919 13.9304 146.507 13.7233C146.321 13.604 146.163 13.4459 146.045 13.26C145.926 13.074 145.85 12.8646 145.821 12.6464C145.778 12.3355 145.757 12.0221 145.758 11.7083V10.8124C145.705 10.1562 145.878 9.50169 146.25 8.95688C146.452 8.74426 146.699 8.58006 146.974 8.4767C147.249 8.37334 147.544 8.33352 147.837 8.36026C148.125 8.33178 148.417 8.36986 148.688 8.47155C148.959 8.57323 149.203 8.73578 149.401 8.94656C149.761 9.50004 149.927 10.1564 149.873 10.8133V11.6013ZM90.6097 13.5835H88.9802C88.6547 13.6143 88.3265 13.5712 88.0202 13.4574C87.714 13.3437 87.4376 13.1623 87.2121 12.9269C86.8112 12.3697 86.6178 11.6911 86.6651 11.0075V10.6239C86.6206 10.2828 86.6565 9.9362 86.77 9.61137C86.8835 9.28655 87.0714 8.99246 87.3188 8.75237C87.5663 8.51229 87.8666 8.33279 88.1958 8.22809C88.5251 8.1234 88.8744 8.09639 89.2159 8.14919C89.7189 8.14919 90.1835 8.17013 90.6097 8.21203V13.5835ZM151.321 7.061C150.373 6.23886 149.139 5.81775 147.883 5.88746C146.599 5.82112 145.339 6.25289 144.368 7.09196C143.91 7.55417 143.556 8.10797 143.33 8.71658C143.104 9.32519 143.01 9.9747 143.056 10.622V12.4184C143.058 12.5842 143.037 12.7494 142.992 12.909C142.967 13.0294 142.903 13.1381 142.809 13.2177C142.714 13.2969 142.605 13.3582 142.487 13.3987C142.365 13.4414 142.239 13.4697 142.11 13.4831C141.996 13.4966 141.882 13.5038 141.767 13.5047H93.3076V6.48502C93.3131 6.39537 93.2932 6.306 93.2501 6.22705C93.1702 6.14133 93.0635 6.08484 92.9474 6.06664C92.7588 6.02411 92.5303 5.98158 92.2618 5.93905C91.9903 5.8959 91.6961 5.85838 91.3933 5.82179C91.0906 5.78521 90.7672 5.76175 90.439 5.74675C90.1109 5.73174 89.7987 5.72611 89.496 5.72611C88.7308 5.71452 87.9681 5.816 87.2328 6.02724C86.5961 6.21075 86.0023 6.51777 85.4854 6.93061C84.9955 7.33479 84.6095 7.84932 84.3595 8.43155C84.0838 9.08631 83.9488 9.79122 83.9634 10.501V10.9025C83.9508 11.4337 84.0267 11.9634 84.1878 12.47C84.3116 12.8599 84.5288 13.214 84.8206 13.5019H31.1749C30.8639 13.5211 30.5532 13.4583 30.2743 13.3199C30.0725 13.1998 29.9716 12.8987 29.9716 12.4165V0.427801C29.9742 0.317862 29.9363 0.210781 29.8651 0.126677C29.8248 0.083307 29.7753 0.0494923 29.7201 0.0277343C29.6649 0.00597641 29.6055 -0.00317092 29.5463 0.000970634H27.6358C27.5763 -0.000752533 27.5171 0.00968116 27.4617 0.0316242C27.4064 0.0535672 27.3562 0.0865552 27.3143 0.128552C27.2732 0.167233 27.2405 0.213952 27.2185 0.265773C27.1964 0.317595 27.1853 0.373399 27.186 0.429676V13.2252C27.1687 13.7429 27.2447 14.2594 27.4104 14.7505C27.5373 15.1089 27.7599 15.4261 28.0545 15.6679C28.3497 15.8958 28.6958 16.0494 29.0635 16.1154C29.4986 16.1977 29.9409 16.2369 30.3837 16.2327H141.47C142.008 16.2401 142.545 16.1793 143.067 16.0516C143.503 15.9481 143.896 15.7136 144.193 15.38C144.597 15.8289 145.134 16.1387 145.726 16.2646C146.416 16.4438 147.126 16.5337 147.839 16.5319C149.113 16.6144 150.37 16.2014 151.344 15.38C151.786 14.9076 152.124 14.3488 152.336 13.7392C152.549 13.1296 152.631 12.4827 152.578 11.8396V10.5807C152.627 9.93924 152.541 9.29467 152.324 8.68847C152.108 8.08227 151.766 7.52789 151.321 7.061Z" fill="#0C483F"/>
</svg>
