<svg xmlns="http://www.w3.org/2000/svg" viewBox="0 0 3067.51 602.3"><defs><style>.cls-1{fill:#09a781;}.cls-2{fill:#274470;}.cls-3{fill:#2babe2;}.cls-4{fill:none;stroke:#fff;stroke-miterlimit:10;stroke-width:14.26px;}</style></defs><title>Asset 7</title><g id="Layer_2" data-name="Layer 2"><g id="Layer_1-2" data-name="Layer 1"><path class="cls-1" d="M863.34,252.41V91.17h27.34V252.41Z"/><path class="cls-1" d="M998.21,166.12q16.07,24.71,26.11,43.87h.67q-1.34-31.45-1.34-45.79v-73H1051V252.41h-28.68l-48.65-74.23q-12.83-19.28-26.56-44.71h-.67q1.34,29.64,1.34,45.91v73H920.44V91.17h28.68Z"/><path class="cls-1" d="M1080.76,252.41V91.17h39.5q5.24,0,10.66.36t10.54,1.08q5.13.72,9.93,1.75a68.17,68.17,0,0,1,8.82,2.47,74.07,74.07,0,0,1,21.09,11.09,65.85,65.85,0,0,1,15.34,16.51A74.32,74.32,0,0,1,1206,145.7a97.3,97.3,0,0,1,3.18,25.49,106.41,106.41,0,0,1-2.68,24.4,75.46,75.46,0,0,1-8.15,20.79,64.76,64.76,0,0,1-13.78,16.57,69.67,69.67,0,0,1-19.69,11.75,98.37,98.37,0,0,1-21.54,5.78,172.57,172.57,0,0,1-27.11,1.93Zm38.61-24.7q24,0,37.49-7.11A42,42,0,0,0,1174.93,202q6.13-12.17,6.14-31.09a73,73,0,0,0-2-17.83,50.86,50.86,0,0,0-5.8-14.16,42.28,42.28,0,0,0-9.21-10.67,49.65,49.65,0,0,0-12.22-7.35,61,61,0,0,0-14.17-3.86,115.73,115.73,0,0,0-17.52-1.21h-12.05V227.7Z"/><path class="cls-1" d="M1294.08,255.42a82.91,82.91,0,0,1-21.09-2.47,56.47,56.47,0,0,1-16.51-7.11,47.23,47.23,0,0,1-12.16-11.33,56.84,56.84,0,0,1-8-15.12,69.81,69.81,0,0,1-3.51-14.94,143.43,143.43,0,0,1-1.06-18.32v-95H1259v92.31q0,17.11,3.79,26.75,4.24,10.73,12.39,15.49a41.07,41.07,0,0,0,38.38,0q8.14-4.76,12.39-15.49,3.79-9.64,3.79-26.75V91.17h27.34v95a143.79,143.79,0,0,1-1.06,18.32,70,70,0,0,1-3.51,14.94,56,56,0,0,1-8.09,15.12,47.06,47.06,0,0,1-12.39,11.33,58.7,58.7,0,0,1-16.79,7.11A84.22,84.22,0,0,1,1294.08,255.42Z"/><path class="cls-1" d="M1459.75,206.13q0-6.15-2.79-9.94a20.78,20.78,0,0,0-7.59-6.21,52.74,52.74,0,0,0-10.77-3.92q-6-1.51-12.55-3a154.44,154.44,0,0,1-16.63-4.88,45.66,45.66,0,0,1-13.95-7.83,35.73,35.73,0,0,1-9.6-12.71q-3.57-7.71-3.57-19.28,0-12.77,4.13-22.23a43.68,43.68,0,0,1,11.21-15.67,46.57,46.57,0,0,1,16.63-9.28,69.88,69.88,0,0,1,21.48-3.07,116.47,116.47,0,0,1,24,2.53,99.24,99.24,0,0,1,20.75,6.51V122.5a119.72,119.72,0,0,0-22.26-7.17,98.11,98.11,0,0,0-20-2.23q-13.5,0-20.81,5.3t-7.31,15.91a19.33,19.33,0,0,0,2.4,10.12A19.71,19.71,0,0,0,1419,151a37.48,37.48,0,0,0,9.48,4.16q5.36,1.57,11.38,2.89,9.48,2.17,18.13,5a52.12,52.12,0,0,1,15.34,7.89,35.45,35.45,0,0,1,10.6,13.2q3.91,8.13,3.91,20.79,0,13-4.46,22.54a41.48,41.48,0,0,1-12.67,15.73,55.46,55.46,0,0,1-19.92,9.22,103,103,0,0,1-25.66,3,111.06,111.06,0,0,1-23.93-2.59,65.06,65.06,0,0,1-19.58-7.29V220.59a104.67,104.67,0,0,0,21.54,7.53,98.69,98.69,0,0,0,21.65,2.35,70.38,70.38,0,0,0,12.72-1.14,36.19,36.19,0,0,0,11.21-3.92,21.94,21.94,0,0,0,8-7.53A21.55,21.55,0,0,0,1459.75,206.13Z"/><path class="cls-1" d="M1573.31,252.41H1546V115.87h-48.2V91.17H1621.4v24.7h-48.09Z"/><path class="cls-1" d="M1747.13,139.61q0,16.87-8.65,28.62t-26.72,17.41v.48l44.41,66.28h-32.8L1682.74,190H1664v62.42h-27.34V91.17h45.41a148.9,148.9,0,0,1,21,1.39,72.64,72.64,0,0,1,16.63,4.16q13.16,5.42,20.31,16.09T1747.13,139.61Zm-69.63,25.67a118.44,118.44,0,0,0,15.9-.9,46.58,46.58,0,0,0,11-2.71q8.26-3.37,11.44-9.22A27.66,27.66,0,0,0,1719,139a25.32,25.32,0,0,0-2.51-11.51,17.64,17.64,0,0,0-8.54-7.89,33.93,33.93,0,0,0-9.82-2.83,99.12,99.12,0,0,0-14.62-.9H1664v49.41Z"/><path class="cls-1" d="M1829,160.58l39.72-69.41h30.35l-56.57,96.29v65h-27.34v-65l-56.57-96.29h30.35l39.72,69.41Z"/><path class="cls-1" d="M2078,166.36a122.62,122.62,0,0,1-6.3,29.77,102,102,0,0,1-11.88,23.62q5.69,6.27,10.71,11.93t9,10.06q4,4.4,6.47,7.23t3.07,3.43h-37.71q-1.9-2.65-4.24-5.48t-6.25-7.41a77.87,77.87,0,0,1-23.21,12,82.85,82.85,0,0,1-25.11,3.92,54.68,54.68,0,0,1-18.75-3.07,42,42,0,0,1-14.51-8.68,38.68,38.68,0,0,1-9.37-13.62,45.69,45.69,0,0,1-3.35-17.77,44.19,44.19,0,0,1,2.4-15,46.68,46.68,0,0,1,6.42-12.11,57.27,57.27,0,0,1,9.26-9.82,116.53,116.53,0,0,1,10.93-8.13q-4.24-4.46-7.87-8.92a63.59,63.59,0,0,1-6.3-9.28,47.15,47.15,0,0,1-4.18-10.18,42.88,42.88,0,0,1-1.51-11.63,42.27,42.27,0,0,1,3-16.39,33.4,33.4,0,0,1,8.7-12.29,38.35,38.35,0,0,1,13.89-7.71,60.34,60.34,0,0,1,18.58-2.65,66.5,66.5,0,0,1,18.63,2.41,38.64,38.64,0,0,1,14,7.17,31.87,31.87,0,0,1,8.87,11.81,40,40,0,0,1,3.13,16.33,42.68,42.68,0,0,1-8.7,26.63,57.73,57.73,0,0,1-9.26,9.64q-5.25,4.34-10.94,8.19,5.47,6,12.5,13.86T2043,200.71a79.05,79.05,0,0,0,6.08-15.55,97.06,97.06,0,0,0,3.18-18.8ZM1995,232a49.58,49.58,0,0,0,15.45-2.53,50.51,50.51,0,0,0,14.79-7.83l-8.59-9.52-8.59-9.52q-4.24-4.7-8.31-9.1t-7.64-8.37a78.55,78.55,0,0,0-7.25,5.54,37.7,37.7,0,0,0-5.75,6.15,28.55,28.55,0,0,0-3.79,7,22.89,22.89,0,0,0-1.39,8.07,21.35,21.35,0,0,0,1.67,8.8,18.22,18.22,0,0,0,4.52,6.27,18.74,18.74,0,0,0,6.69,3.8A26.09,26.09,0,0,0,1995,232ZM1983,126.6a20.89,20.89,0,0,0,1.06,6.75,26.13,26.13,0,0,0,3.12,6.21,48.49,48.49,0,0,0,5,6.21q3,3.13,6.64,6.87,3.91-2.65,7.25-5.42a38.58,38.58,0,0,0,5.8-5.9,26.59,26.59,0,0,0,3.85-6.69,20.78,20.78,0,0,0,1.39-7.65,14.71,14.71,0,0,0-4.46-11.21q-4.46-4.22-12.61-4.22a20.56,20.56,0,0,0-7.31,1.21,16,16,0,0,0-5.36,3.25,13.56,13.56,0,0,0-3.29,4.76A15.21,15.21,0,0,0,1983,126.6Z"/><path class="cls-1" d="M2175,227.7h73.42v24.7H2147.68V91.17h96.74v24.7H2175v41.7h59.58v24.7H2175Z"/><path class="cls-1" d="M2310.9,124.31q10.82,17,15.18,24.34h.56q6-10.12,15.06-24.22L2363,91.17h31.47l-52,79.29,54.23,81.95h-31l-23.32-36q-8.59-13.25-15.84-25.07h-.45q-7.59,12.29-15.84,25.07l-23.32,36h-31l54.23-81.95-52-79.29h31.47Z"/><path class="cls-1" d="M2452.13,190q-3.68,0-7.25-.12t-6.7-.48v63h-27.34V91.17h43.07a152.88,152.88,0,0,1,18.91,1,80.23,80.23,0,0,1,14.45,3.07q15.29,5.06,23.54,16.15t8.26,28.2a48.17,48.17,0,0,1-4.46,21,42.88,42.88,0,0,1-13.05,15.85,62.48,62.48,0,0,1-21,10A105,105,0,0,1,2452.13,190Zm-13.95-25.43q2.34.36,6,.54t7.53.18a75.48,75.48,0,0,0,18.52-1.93,34.16,34.16,0,0,0,12.05-5.36,19.69,19.69,0,0,0,6.58-8.31,27.76,27.76,0,0,0,2-10.67,24,24,0,0,0-3-12.29q-3-5.18-10.49-8.07a42.07,42.07,0,0,0-9.65-2.11,126.57,126.57,0,0,0-14.12-.66h-15.4Z"/><path class="cls-1" d="M2681,171.79a111.79,111.79,0,0,1-4.85,33.8A76.33,76.33,0,0,1,2661.93,232a63.92,63.92,0,0,1-22.87,17.23q-13.56,6.15-30.85,6.15t-30.85-6.15A63.91,63.91,0,0,1,2554.48,232a76.3,76.3,0,0,1-14.17-26.45,111.79,111.79,0,0,1-4.85-33.8,111.79,111.79,0,0,1,4.85-33.8,76.31,76.31,0,0,1,14.17-26.45,63.93,63.93,0,0,1,22.88-17.23q13.56-6.15,30.85-6.15t30.85,6.15a63.94,63.94,0,0,1,22.88,17.23A76.35,76.35,0,0,1,2676.1,138,111.79,111.79,0,0,1,2681,171.79Zm-28.23,0a88.83,88.83,0,0,0-3.35-25.73,54,54,0,0,0-9.26-18.38,37.38,37.38,0,0,0-14.06-11,45.89,45.89,0,0,0-35.71,0,37.35,37.35,0,0,0-14.06,11,54,54,0,0,0-9.26,18.38,88.83,88.83,0,0,0-3.35,25.73,88.83,88.83,0,0,0,3.35,25.73,53.31,53.31,0,0,0,9.26,18.32,38.14,38.14,0,0,0,14.06,11,45.2,45.2,0,0,0,35.71,0,38.16,38.16,0,0,0,14.06-11,53.34,53.34,0,0,0,9.26-18.32A88.83,88.83,0,0,0,2652.73,171.79Z"/><path class="cls-1" d="M2814.49,139.61q0,16.87-8.65,28.62t-26.72,17.41v.48l44.41,66.28h-32.8L2750.11,190h-18.75v62.42H2704V91.17h45.41a148.9,148.9,0,0,1,21,1.39A72.64,72.64,0,0,1,2787,96.71q13.16,5.42,20.31,16.09T2814.49,139.61Zm-69.63,25.67a118.44,118.44,0,0,0,15.9-.9,46.58,46.58,0,0,0,11-2.71q8.26-3.37,11.44-9.22a27.66,27.66,0,0,0,3.18-13.44,25.32,25.32,0,0,0-2.51-11.51,17.64,17.64,0,0,0-8.54-7.89,33.93,33.93,0,0,0-9.82-2.83,99.12,99.12,0,0,0-14.62-.9h-19.53v49.41Z"/><path class="cls-1" d="M2902.62,252.41h-27.34V115.87h-48.2V91.17h123.63v24.7h-48.09Z"/><path class="cls-1" d="M3039.39,206.13q0-6.15-2.79-9.94A20.78,20.78,0,0,0,3029,190a52.74,52.74,0,0,0-10.77-3.92q-6-1.51-12.55-3a154.44,154.44,0,0,1-16.63-4.88,45.66,45.66,0,0,1-13.95-7.83,35.73,35.73,0,0,1-9.6-12.71q-3.57-7.71-3.57-19.28,0-12.77,4.13-22.23a43.68,43.68,0,0,1,11.21-15.67,46.57,46.57,0,0,1,16.63-9.28,69.88,69.88,0,0,1,21.48-3.07,116.47,116.47,0,0,1,24,2.53,99.24,99.24,0,0,1,20.75,6.51V122.5a119.72,119.72,0,0,0-22.26-7.17,98.11,98.11,0,0,0-20-2.23q-13.5,0-20.81,5.3t-7.31,15.91a19.33,19.33,0,0,0,2.4,10.12,19.71,19.71,0,0,0,6.53,6.57,37.48,37.48,0,0,0,9.48,4.16q5.36,1.57,11.38,2.89,9.48,2.17,18.13,5a52.12,52.12,0,0,1,15.34,7.89,35.45,35.45,0,0,1,10.6,13.2q3.91,8.13,3.91,20.79,0,13-4.46,22.54a41.48,41.48,0,0,1-12.67,15.73,55.46,55.46,0,0,1-19.92,9.22,103,103,0,0,1-25.66,3,111.06,111.06,0,0,1-23.93-2.59,65.06,65.06,0,0,1-19.58-7.29V220.59a104.67,104.67,0,0,0,21.54,7.53,98.69,98.69,0,0,0,21.65,2.35,70.38,70.38,0,0,0,12.72-1.14,36.19,36.19,0,0,0,11.21-3.92,21.94,21.94,0,0,0,8-7.53A21.55,21.55,0,0,0,3039.39,206.13Z"/><path class="cls-2" d="M863.34,522.36V361.12h39.5q5.24,0,10.66.36T924,362.57q5.13.72,9.93,1.75a68.11,68.11,0,0,1,8.81,2.47,74.09,74.09,0,0,1,21.09,11.09,65.87,65.87,0,0,1,15.34,16.51,74.32,74.32,0,0,1,9.37,21.27,97.3,97.3,0,0,1,3.18,25.49,106.41,106.41,0,0,1-2.68,24.4,75.43,75.43,0,0,1-8.15,20.79,64.74,64.74,0,0,1-13.78,16.57,69.65,69.65,0,0,1-19.69,11.75,98.35,98.35,0,0,1-21.54,5.78,172.59,172.59,0,0,1-27.11,1.93Zm38.61-24.7q24,0,37.49-7.11A42,42,0,0,0,957.51,472q6.14-12.17,6.14-31.09a72.9,72.9,0,0,0-2-17.83,50.83,50.83,0,0,0-5.8-14.16,42.26,42.26,0,0,0-9.21-10.67,49.65,49.65,0,0,0-12.22-7.35A61,61,0,0,0,920.25,387a115.73,115.73,0,0,0-17.52-1.21H890.68V497.66Z"/><path class="cls-2" d="M1014.84,522.36V361.12h27.34V522.36Z"/><path class="cls-2" d="M1182.41,409.56q0,16.87-8.65,28.62T1147,455.6v.48l44.41,66.28h-32.8L1118,459.94h-18.75v62.42h-27.34V361.12h45.41a148.9,148.9,0,0,1,21,1.39,72.64,72.64,0,0,1,16.63,4.16q13.16,5.42,20.31,16.09T1182.41,409.56Zm-69.63,25.67a118.44,118.44,0,0,0,15.9-.9,46.58,46.58,0,0,0,11-2.71q8.26-3.37,11.44-9.22a27.66,27.66,0,0,0,3.18-13.44,25.32,25.32,0,0,0-2.51-11.51,17.64,17.64,0,0,0-8.54-7.89,33.93,33.93,0,0,0-9.82-2.83,99.12,99.12,0,0,0-14.62-.9h-19.53v49.41Z"/><path class="cls-2" d="M1236.83,497.66h73.42v24.7H1209.5V361.12h96.74v24.7h-69.4v41.7h59.58v24.7h-59.58Z"/><path class="cls-2" d="M1406,383.05a52.43,52.43,0,0,0-20.59,4,44.51,44.51,0,0,0-16.18,11.57,53.94,53.94,0,0,0-10.54,18.74,78.93,78.93,0,0,0-3.79,25.49,82,82,0,0,0,3.46,25,49,49,0,0,0,9.93,18A41.08,41.08,0,0,0,1384,496.75a57.22,57.22,0,0,0,21.14,3.68,106.71,106.71,0,0,0,17.29-1.45,93.12,93.12,0,0,0,16.51-4.22v25.43a117.59,117.59,0,0,1-16.85,3.8,123.77,123.77,0,0,1-18.75,1.39q-19,0-33.36-5.84A64.68,64.68,0,0,1,1346,503a69.74,69.74,0,0,1-14.51-25.55,105.46,105.46,0,0,1-4.85-32.84,109,109,0,0,1,5.19-34.22,81.2,81.2,0,0,1,15-27.36,68.15,68.15,0,0,1,24.44-18.2q14.67-6.63,33.2-6.75a111.51,111.51,0,0,1,18,1.39,81.8,81.8,0,0,1,15.29,3.92v25.07a101.66,101.66,0,0,0-16.63-4.22A97.55,97.55,0,0,0,1406,383.05Z"/><path class="cls-2" d="M1522,522.36h-27.34V385.82h-48.2v-24.7h123.63v24.7H1522Z"/><path class="cls-2" d="M1718.56,441.74a111.79,111.79,0,0,1-4.85,33.8A76.33,76.33,0,0,1,1699.54,502a63.92,63.92,0,0,1-22.87,17.23q-13.56,6.15-30.85,6.15T1615,519.23A63.91,63.91,0,0,1,1592.08,502a76.3,76.3,0,0,1-14.17-26.45,120.14,120.14,0,0,1,0-67.61,76.31,76.31,0,0,1,14.17-26.45A63.93,63.93,0,0,1,1615,364.25q13.56-6.15,30.85-6.15t30.85,6.15a63.94,63.94,0,0,1,22.88,17.23,76.35,76.35,0,0,1,14.17,26.45A111.79,111.79,0,0,1,1718.56,441.74Zm-28.23,0A88.83,88.83,0,0,0,1687,416a54,54,0,0,0-9.26-18.38,37.38,37.38,0,0,0-14.06-11,45.89,45.89,0,0,0-35.71,0,37.35,37.35,0,0,0-14.06,11,54,54,0,0,0-9.26,18.38,100.54,100.54,0,0,0,0,51.46,53.31,53.31,0,0,0,9.26,18.32,38.14,38.14,0,0,0,14.06,11,45.2,45.2,0,0,0,35.71,0,38.16,38.16,0,0,0,14.06-11,53.34,53.34,0,0,0,9.26-18.32A88.83,88.83,0,0,0,1690.33,441.74Z"/><path class="cls-2" d="M1852.1,409.56q0,16.87-8.65,28.62t-26.72,17.41v.48l44.41,66.28h-32.8l-40.62-62.42H1769v62.42h-27.34V361.12H1787a148.9,148.9,0,0,1,21,1.39,72.64,72.64,0,0,1,16.63,4.16q13.16,5.42,20.31,16.09T1852.1,409.56Zm-69.63,25.67a118.44,118.44,0,0,0,15.9-.9,46.58,46.58,0,0,0,11-2.71q8.26-3.37,11.44-9.22A27.66,27.66,0,0,0,1824,409a25.32,25.32,0,0,0-2.51-11.51,17.64,17.64,0,0,0-8.54-7.89,33.93,33.93,0,0,0-9.82-2.83,99.12,99.12,0,0,0-14.62-.9H1769v49.41Z"/><path class="cls-2" d="M1934,430.53l39.72-69.41H2004l-56.57,96.29v65h-27.34v-65l-56.57-96.29h30.35l39.72,69.41Z"/><path class="cls-1" d="M438,421.8c29.18-44.7,73.67-127.38,81.89-204-30.61,88-95.8,174.73-179.82,242.52A213.78,213.78,0,0,0,438,421.8Z"/><path class="cls-1" d="M285.48,460.26c72.28-63.36,168.77-149,231.53-296.11-78.94,102.11-163.16,173.46-284.88,242.9-12.76,7.33-25,13.93-36.75,20A214.38,214.38,0,0,0,285.48,460.26Z"/><path class="cls-2" d="M660.12,213.13a9,9,0,0,0-10-7.92l-46.2-10.43a291.48,291.48,0,0,0-18.61-62.37L621,98.74a9,9,0,0,0,4.62-11.88l-23-44.22a7.92,7.92,0,0,0-5.15-4C590.09,48.25,581.77,59,573.19,70c-20.59,27.66-40.2,52.8-59.4,76.37C570,256.84,526.13,392,415.69,448.23a224.42,224.42,0,0,1-248.36-30c-91.22,39.27-124,21.06-132,19.8a55.58,55.58,0,0,1-15.91-5.35l7.46,22a9.11,9.11,0,0,0,11.75,5L97.23,457a9.7,9.7,0,0,0,5.54-4.42,317.21,317.21,0,0,0,28.05,25.21l-1.85,3-6.14,58.35a9.17,9.17,0,0,0,4.22,12.08l46.2,18.48a9.11,9.11,0,0,0,11.48-5.74l30.16-39a301.64,301.64,0,0,0,56.57,14v.46l22,54.32A9.17,9.17,0,0,0,303,602.3l49.57-5.41a9,9,0,0,0,7.39-10.36l8.51-50a296.63,296.63,0,0,0,53.33-15.18l35.58,40.79a9,9,0,0,0,11.62,5l45.21-21.32a9,9,0,0,0,3.56-12.14l-9.64-57.89-3.63-4.09a297,297,0,0,0,38.68-39.6l2.64,1.65,58.22,7a8.91,8.91,0,0,0,12-3.9l.1-.19,19.21-46.2a9.11,9.11,0,0,0-5.48-11.48L590.94,348a292.85,292.85,0,0,0,14.85-59.4l48-16.57a9,9,0,0,0,9-9ZM312.93,525.2a17,17,0,1,1,17-17v.07a17.1,17.1,0,0,1-17,17m196.56-81.45a17,17,0,1,1,.1-.1l-.1.1M574,264a17,17,0,1,1,17-17.1V247A17,17,0,0,1,574,264H574"/><path class="cls-3" d="M1.19,355.63C4.36,303.29,59.6,215.31,102.84,171.75a256.45,256.45,0,0,0,0,27.92c-41,58.08-54.06,109.83-31.29,135.44s103.3,13.2,173-26.73c27.85-15.91,68.84-39.27,107.59-66.6C410.55,200.66,467.84,151.55,499,113.4L448.9,91.55,607.12,0S523.75,110,492.73,145.21,360.12,285.8,281.51,333.06s-174.19,84-210,83.69a80.06,80.06,0,0,1-64.09-37,97.69,97.69,0,0,1-6.27-23.89"/><path class="cls-2" d="M607.12,0C476.23,185.8,394.45,274.91,246.27,363s-195,61.25-204.62,59.4S-6.86,410.55,1.06,355.17c6.6,30.69,26.4,54.12,74,51.35,54.92,3.17,202.5-53.33,341.38-193C508,120.53,557.41,64.88,607.12,0"/><line class="cls-4" x1="758.68" y1="24.03" x2="758.68" y2="601.7"/></g></g></svg>
