<svg xmlns="http://www.w3.org/2000/svg" xmlns:xlink="http://www.w3.org/1999/xlink" id="logo_header" data-name="logo header" width="106.975" height="46" viewBox="0 0 106.975 46"><defs><clipPath id="clip-path"><rect id="Rectangle_5685" data-name="Rectangle 5685" width="106.975" height="46" fill="none"></rect></clipPath><clipPath id="clip-path-2"><path id="Trac&#xE9;_37280" data-name="Trac&#xE9; 37280" d="M37.444,142.806c-5.822,4.18-10.832,12.769-19.1,12.546-8.1-.219-13.511-8.175-17.479-13.867-.233-.334-.537-.748-.867-1.2a21.173,21.173,0,0,0,6.631,15.452,23.364,23.364,0,0,0,32.036,0,21.173,21.173,0,0,0,6.631-15.4,3.218,3.218,0,0,0-1.863-.584c-2.05,0-4.213,1.779-5.992,3.055" transform="translate(0 -139.751)" fill="none"></path></clipPath><radialGradient id="radial-gradient" cx="0.548" cy="0.57" r="1.705" gradientTransform="matrix(0, -1, -0.563, 0, 0.515, 0.914)" gradientUnits="objectBoundingBox"><stop offset="0" stop-color="#0090df"></stop><stop offset="1" stop-color="#002560"></stop></radialGradient><clipPath id="clip-path-4"><path id="Trac&#xE9;_37282" data-name="Trac&#xE9; 37282" d="M22.752,0A23.1,23.1,0,0,0,6.791,6.356,21.17,21.17,0,0,0,.159,21.76c2.532,1.736,5.525-.8,7.856-2.473,5.822-4.18,10.832-12.769,19.1-12.547,8.1.221,13.511,8.176,17.479,13.87.233.335.537.747.868,1.2A21.179,21.179,0,0,0,38.828,6.356,23.1,23.1,0,0,0,22.868,0Z" transform="translate(-0.159 -0.001)" fill="none"></path></clipPath><radialGradient id="radial-gradient-2" cx="0.452" cy="0.358" r="1.775" gradientTransform="matrix(0, 1, 0.541, 0, -1.059, 1.958)" xlink:href="#radial-gradient"></radialGradient></defs><g id="Groupe_53561" data-name="Groupe 53561"><g id="Groupe_53560" data-name="Groupe 53560" clip-path="url(#clip-path)"><path id="Trac&#xE9;_37277" data-name="Trac&#xE9; 37277" d="M323.364,45.179a1.039,1.039,0,0,0,1.046-1.047,1.037,1.037,0,1,0-2.074,0,1.037,1.037,0,0,0,1.028,1.047m4.372,2.135v3.868c0,4.651-2.074,5.939-4.108,5.939s-4.108-1.288-4.108-5.939V46.889l-3.224.143v.683c1.146,0,1.45.161,1.45.646v2.82c0,3.241,1.973,6.624,5.881,6.624,3.883,0,5.878-3.383,5.878-6.624V45.925l-2.658.5c.868.283.888.423.888.887m4.448-4.452V54.341h1.773V41.474l-2.637.5c.845.283.865.423.865.886m15.139,3c.89.282.909.423.909.905v4.894c0,1.169-.442,1.914-1.51,1.933h-3.28a29.719,29.719,0,0,0,.139-3.222V45.44h-1.529a5.531,5.531,0,0,0-5.883,5.76,3.209,3.209,0,0,0,3.081,3.141h2.317a4.814,4.814,0,0,1-4.047,3.527l-.483.079c.724.06,1.373.1,1.652.1,1.628,0,3.727-.483,4.569-3.707h3.809c1.71,0,2.918-.926,2.918-2.616V45.361Zm-5.513,7.108a5.607,5.607,0,0,1-.042.624H339.7c-1.148,0-1.772-1.329-1.772-2.516,0-3,1.892-5.014,3.663-5.014h.224Zm5.779,3.182a1.036,1.036,0,1,0,1.046,1.047,1.041,1.041,0,0,0-1.046-1.047" transform="translate(-262.753 -34.453)" fill="#002560"></path><path id="Trac&#xE9;_37278" data-name="Trac&#xE9; 37278" d="M331.922,152.51a6.875,6.875,0,0,0-3.184.772l.4,1a5.8,5.8,0,0,1,2.508-.656c1.329,0,2.295.461,2.295,2.064v.636c-3.222.329-5.808,1.14-5.808,3.9,0,1.891,1.255,3.068,3.957,3.068a7.294,7.294,0,0,0,3.454-.733v-6.675c0-2.548-1.7-3.376-3.626-3.376m2.024,9.452a3.741,3.741,0,0,1-1.717.35c-1.541,0-2.467-.62-2.467-2.124,0-2.1,1.563-2.663,4.185-2.991Zm21.871-9.452a6.854,6.854,0,0,0-3.181.772l.4,1a5.79,5.79,0,0,1,2.509-.656c1.33,0,2.3.461,2.3,2.064v.636c-3.222.329-5.809,1.14-5.809,3.9,0,1.891,1.255,3.068,3.956,3.068a7.289,7.289,0,0,0,3.453-.733v-6.675c0-2.548-1.7-3.376-3.627-3.376m2.027,9.452a3.77,3.77,0,0,1-1.721.35c-1.54,0-2.469-.62-2.469-2.124,0-2.1,1.565-2.663,4.19-2.991Zm-34.757-5.884v-.037a3.08,3.08,0,0,0,2.587-3.087c0-1.93-1.565-3.316-4.479-3.318l-.14.007h-.017l-4.743.224v.759c1.146,0,1.45.159,1.45.644v2.82h0v8.473a7.829,7.829,0,0,0,3.627.733c2.737,0,4.8-1.118,4.8-3.781a3.738,3.738,0,0,0-3.088-3.434m-3.664-5.133a4.958,4.958,0,0,1,1.756-.287c1.812,0,2.777.811,2.777,2.43,0,1.737-.926,2.585-3.666,2.585h-.868Zm1.87,11.212a4.628,4.628,0,0,1-1.87-.31v-5.285h.887c2.876,0,4.073.906,4.073,2.97,0,1.928-1.352,2.625-3.09,2.625m44.69-9.647a11.065,11.065,0,0,0-2.1.187l-.049.009-.039.007-2.475.5c.845.28.865.423.865.884V163.1h1.7v-9.126a4.356,4.356,0,0,1,1.967-.369c1.775,0,2.182,1.061,2.182,2.027V163.1h1.7V155.6c0-1.483-.849-3.086-3.743-3.086m-16.8,1.089-.175.685-1.489,5.865a9.291,9.291,0,0,0-.212,1.256h-.039a11.559,11.559,0,0,0-.231-1.237l-2.047-6.759h-1.467l-2.1,6.759a9.372,9.372,0,0,0-.25,1.237h-.04a8.09,8.09,0,0,0-.211-1.237l-1.814-7.466-2.648-.005c.874.255,1,.4,1.129.773l2.733,9.633h1.464l2.144-6.723a7.344,7.344,0,0,0,.251-1.216h.019a6.811,6.811,0,0,0,.212,1.216l2.1,6.723h1.465l2.971-10.4h-2.425c.764.286.754.422.654.9" transform="translate(-262.753 -124.306)" fill="#002560"></path><path id="Trac&#xE9;_37279" data-name="Trac&#xE9; 37279" d="M18.359,155.193a11.591,11.591,0,0,0,4.232-.684c-5.818-2.139-10-8.425-14.722-11.814-2.332-1.674-5.323-4.3-7.854-2.566.329.449.633.862.865,1.2,3.968,5.692,9.382,13.648,17.479,13.867" transform="translate(-0.012 -115.934)" fill="#002560"></path></g></g><g id="Groupe_53563" data-name="Groupe 53563" transform="translate(0 23.657)"><g id="Groupe_53562" data-name="Groupe 53562" clip-path="url(#clip-path-2)"><rect id="Rectangle_5686" data-name="Rectangle 5686" width="45.346" height="24.461" transform="translate(-0.03 0)" fill="url(#radial-gradient)"></rect></g></g><g id="Groupe_53565" data-name="Groupe 53565"><g id="Groupe_53564" data-name="Groupe 53564" clip-path="url(#clip-path)"><path id="Trac&#xE9;_37281" data-name="Trac&#xE9; 37281" d="M138.611,39.794a11.612,11.612,0,0,0-4.232.684c5.818,2.141,10,8.425,14.722,11.814,2.332,1.674,5.323,4.3,7.854,2.568-.329-.451-.633-.862-.865-1.2-3.968-5.693-9.382-13.649-17.479-13.87" transform="translate(-111.631 -33.054)" fill="#002560"></path></g></g><g id="Groupe_53567" data-name="Groupe 53567" transform="translate(0.027 0)"><g id="Groupe_53566" data-name="Groupe 53566" clip-path="url(#clip-path-4)"><rect id="Rectangle_5688" data-name="Rectangle 5688" width="45.346" height="23.496" transform="translate(-0.017 0)" fill="url(#radial-gradient-2)"></rect></g></g></svg>