<?xml version="1.0" encoding="UTF-8"?>
<svg xmlns="http://www.w3.org/2000/svg" width="255" height="80" viewBox="0 0 255 80" fill="none">
  <path d="M225.767 63.3953C219.321 64.2553 212.868 65.0327 206.409 65.7276C144.078 72.4655 81.1609 71.6825 19.017 63.3953C9.15207 61.9712 3.82193 53.2199 7.17909 43.7875C10.0714 35.5315 12.6745 27.1724 15.5772 18.5553C17.2609 13.5707 22.7047 9.4015 27.663 9.38086H217.131C222.089 9.38086 227.523 13.5707 229.217 18.5553C232.12 27.1724 234.723 35.5831 237.615 43.7875C240.972 53.2199 235.632 61.9712 225.767 63.3953Z" fill="#F2F3F3"></path>
  <path d="M226.552 64.6428C220.099 65.5028 213.643 66.2802 207.184 66.9751C144.856 73.7078 81.943 72.9247 19.8021 64.6428C9.92689 63.198 4.59674 54.4674 7.95391 45.035C10.8462 36.8409 13.4493 28.4199 16.352 19.8131C18.0461 14.8286 23.4795 10.649 28.4378 10.6387H217.906C222.864 10.6387 228.298 14.8286 229.992 19.8131C232.894 28.4199 235.497 36.8409 238.39 45.035C241.747 54.4674 236.417 63.198 226.552 64.6428Z" fill="#F2F3F3"></path>
  <path d="M226.552 64.6526C220.106 65.5401 213.65 66.2831 207.194 66.9849C144.874 73.8883 81.9407 73.1049 19.8123 64.6526C9.92677 63.28 4.61728 54.4771 7.96412 45.0447C10.8564 36.8507 13.4699 28.4297 16.3725 19.8228C18.0563 14.8383 23.4897 10.6691 28.448 10.6484H217.916C222.874 10.6484 228.308 14.8383 229.992 19.8228C232.894 28.4297 235.508 36.8507 238.4 45.0447C241.747 54.4771 236.437 63.28 226.552 64.6526Z" fill="#D1D1D1"></path>
  <path d="M226.563 64.6643C220.117 65.5518 213.661 66.2948 207.194 66.9966C144.878 73.9 81.948 73.1167 19.8231 64.6643C9.93751 63.2917 4.62802 54.4888 7.97486 45.0564C10.8672 36.8624 13.4806 28.4517 16.3833 19.8346C18.067 14.85 23.5005 10.6808 28.4587 10.6602H217.927C222.885 10.6602 228.319 14.85 230.002 19.8346C232.905 28.4517 235.518 36.8624 238.4 45.0564C241.758 54.4888 236.438 63.2917 226.563 64.6643Z" fill="#D2D2D1"></path>
  <path d="M226.562 64.6735C220.127 65.561 213.66 66.304 207.204 67.0058C144.888 73.9092 81.9578 73.1259 19.8329 64.6735C9.95771 63.3009 4.63789 54.4981 7.99505 45.0657C10.8771 36.8716 13.5421 28.4609 16.3931 19.8541C18.0769 14.8696 23.5103 10.7003 28.4686 10.6797H217.926C222.885 10.6797 228.318 14.8696 230.012 19.8541C232.915 28.4712 235.518 36.882 238.41 45.076C241.767 54.4981 236.448 63.3009 226.562 64.6735Z" fill="#D3D2D2"></path>
  <path d="M226.573 64.6838C220.137 65.5713 213.671 66.2937 207.215 67.0161C144.898 73.9195 81.9686 73.1362 19.8437 64.6838C9.96845 63.3113 4.64863 54.5084 8.0058 45.076C10.8878 36.882 13.5425 28.4712 16.4039 19.8541C18.0876 14.8696 23.5211 10.7003 28.4793 10.6797H217.937C222.895 10.6797 228.329 14.8696 230.013 19.8541C232.915 28.4712 235.529 36.882 238.411 45.076C241.768 54.5084 236.448 63.3113 226.573 64.6838Z" fill="#D3D3D3"></path>
  <path d="M226.584 64.6947C220.138 65.5822 213.682 66.3252 207.215 67.027C144.902 73.9304 81.9759 73.1471 19.8544 64.6947C9.97919 63.3221 4.65937 54.5193 8.01654 45.0868C10.8985 36.8928 13.543 28.4821 16.4146 19.8546C18.0984 14.8598 23.5421 10.6906 28.4901 10.6699H217.948C222.896 10.6699 228.34 14.8598 230.023 19.8546C232.926 28.4615 235.529 36.8722 238.421 45.0662C241.83 54.5193 236.459 63.3221 226.584 64.6947Z" fill="#D4D4D4"></path>
  <path d="M226.583 64.705C220.148 65.5925 213.682 66.3356 207.226 67.0373C144.913 73.9407 81.9861 73.1574 19.8647 64.705C9.98944 63.3325 4.66963 54.5296 8.02679 45.0972C10.9191 36.9032 13.5429 28.4924 16.4249 19.8546C18.1086 14.8701 23.5524 10.6906 28.5107 10.6699H217.948C222.906 10.6699 228.34 14.8701 230.023 19.8546C232.926 28.4615 235.539 36.8722 238.432 45.0662C241.83 54.5296 236.469 63.3325 226.583 64.705Z" fill="#D5D5D5"></path>
  <path d="M226.593 64.7148C220.147 65.6023 213.691 66.3453 207.235 67.0471C144.926 73.9505 82.0026 73.1672 19.8846 64.7148C9.99903 63.3422 4.68954 54.5393 8.03638 45.1069C10.9287 36.9129 13.5421 28.5022 16.4345 19.8541C18.1285 14.8696 23.562 10.7003 28.5203 10.6797H217.957C222.916 10.6797 228.349 14.8696 230.033 19.8541C232.936 28.4609 235.549 36.8716 238.431 45.076C241.829 54.5393 236.468 63.3422 226.593 64.7148Z" fill="#D6D6D5"></path>
  <path d="M226.604 64.7268C220.158 65.6143 213.702 66.3573 207.236 67.0591C144.929 73.9625 82.0098 73.1792 19.8953 64.7268C10.0098 63.3542 4.70029 54.5514 8.04712 45.1189C10.9395 36.9249 13.5529 28.5039 16.4452 19.8971C18.1393 14.9125 23.5727 10.7433 28.531 10.7227H217.958C222.916 10.7227 228.35 14.9125 230.044 19.8971C232.946 28.5039 235.549 36.9249 238.442 45.1189C241.83 54.5514 236.479 63.3542 226.604 64.7268Z" fill="#D6D6D6"></path>
  <path d="M226.604 64.7346C220.168 65.6221 213.702 66.3755 207.246 67.0669C144.94 73.9704 82.0202 73.187 19.9057 64.7346C10.0202 63.362 4.71069 54.5592 8.06785 45.1268C10.9499 36.9327 13.5633 28.5117 16.4659 19.9049C18.1497 14.9204 23.5831 10.7511 28.5414 10.7305H217.968C222.926 10.7305 228.36 14.9204 230.044 19.9049C232.946 28.5117 235.56 36.9327 238.442 45.1268C241.83 54.5592 236.479 63.362 226.604 64.7346Z" fill="#D7D7D7"></path>
  <path d="M226.614 64.7461C220.168 65.6439 213.712 66.3869 207.256 67.0784C144.95 73.9818 82.03 73.1985 19.9155 64.7461C10.0402 63.3735 4.72041 54.5706 8.07757 45.1382C10.9596 36.9442 13.573 28.5232 16.4757 19.9164C18.1594 14.9318 23.5928 10.7626 28.5511 10.7419H217.978C222.936 10.7419 228.37 14.9318 230.053 19.9164C232.956 28.5232 235.559 36.9442 238.451 45.1382C241.829 54.5706 236.489 63.3735 226.614 64.7461Z" fill="#D8D8D8"></path>
  <path d="M226.614 64.7561C220.179 65.6539 213.723 66.3969 207.256 67.0884C144.953 73.9917 82.0373 73.2084 19.9262 64.7561C10.051 63.3835 4.73115 54.5806 8.08832 45.1482C10.9703 36.9542 13.5837 28.5435 16.4864 19.9263C18.1701 14.9418 23.6036 10.7726 28.5619 10.7519H217.978C222.937 10.7519 228.37 14.9418 230.064 19.9263C232.956 28.5435 235.57 36.9542 238.462 45.1482C241.83 54.5806 236.5 63.3835 226.614 64.7561Z" fill="#D9D9D8"></path>
  <path d="M226.625 64.766C220.189 65.6639 213.723 66.4069 207.267 67.0983C144.964 74.0017 82.048 73.2184 19.9369 64.766C10.0617 63.3935 4.74189 54.5906 8.09906 45.1582C10.9914 36.9642 13.5945 28.5534 16.4971 19.9363C18.1809 14.9518 23.6143 10.7825 28.5726 10.7619H217.989C222.947 10.7619 228.381 14.9518 230.065 19.9363C232.967 28.5534 235.581 36.9642 238.463 45.1582C241.83 54.5906 236.5 63.3935 226.625 64.766Z" fill="#D9D9D9"></path>
  <path d="M226.635 64.7771C220.189 65.6749 213.733 66.4179 207.277 67.1094C144.974 74.0128 82.0582 73.2295 19.9472 64.7771C10.072 63.4045 4.75215 54.6016 8.10931 45.1692C11.0016 36.9752 13.6047 28.5645 16.5074 19.9577C18.1911 14.9731 23.6349 10.7936 28.5829 10.7832H217.999C222.947 10.7832 228.391 14.9731 230.075 19.9577C232.977 28.5645 235.581 36.9752 238.473 45.1692C241.83 54.6016 236.51 63.4045 226.635 64.7771Z" fill="#DADADA"></path>
  <path d="M226.634 64.787C220.199 65.6848 213.743 66.4278 207.276 67.1193C144.977 74.0226 82.0645 73.2393 19.9569 64.787C10.0816 63.4144 4.77215 54.6115 8.11899 45.1791C11.0113 36.9851 13.6144 28.5744 16.5171 19.9676C18.2008 14.9831 23.6446 10.8138 28.5925 10.7932H217.999C222.957 10.7932 228.39 14.9831 230.074 19.9676C232.977 28.5744 235.59 36.9851 238.472 45.1791C241.829 54.6115 236.52 63.4144 226.634 64.787Z" fill="#DBDBDB"></path>
  <path d="M226.645 64.7966C220.199 65.6944 213.743 66.4374 207.287 67.1288C144.992 74.0323 82.0821 73.2489 19.978 64.7966C10.0924 63.424 4.78295 54.6211 8.14012 45.1887C11.0221 36.9947 13.6355 28.584 16.5279 19.9771C18.2219 14.9926 23.6554 10.8234 28.6033 10.8027H218.009C222.968 10.8027 228.401 14.9926 230.085 19.9771C232.988 28.584 235.591 36.9947 238.483 45.1887C241.83 54.6211 236.52 63.424 226.645 64.7966Z" fill="#DCDBDB"></path>
  <path d="M226.655 64.8063C220.21 65.7041 213.754 66.4472 207.297 67.1386C145.002 74.042 82.0924 73.2587 19.9883 64.8063C10.1027 63.4338 4.79321 54.6309 8.15037 45.1985C11.0324 37.0045 13.6458 28.5937 16.5485 19.9869C18.2322 15.0024 23.6656 10.8331 28.6239 10.8125H218.071C223.019 10.8125 228.453 15.0024 230.147 19.9869C233.039 28.5937 235.653 37.0045 238.545 45.1985C241.83 54.6309 236.531 63.4338 226.655 64.8063Z" fill="#DCDCDC"></path>
  <path d="M226.655 64.8182C220.219 65.7161 213.753 66.4591 207.297 67.1505C145.005 74.054 82.0986 73.2706 19.998 64.8182C10.1227 63.4457 4.80293 54.6428 8.16009 45.2104C11.0421 37.0164 13.6555 28.6057 16.5582 19.9988C18.2419 15.0143 23.6754 10.8451 28.6336 10.8244H218.071C223.029 10.8244 228.462 15.0143 230.146 19.9988C233.049 28.6057 235.662 37.0164 238.544 45.2104C241.829 54.6428 236.53 63.4457 226.655 64.8182Z" fill="#DDDDDD"></path>
  <path d="M226.666 64.8278C220.22 65.7256 213.764 66.4687 207.308 67.1601C145.015 74.0635 82.1094 73.2802 20.0087 64.8278C10.1335 63.4552 4.81367 54.6627 8.17084 45.22C11.0528 37.0259 13.6663 28.6152 16.5689 20.0084C18.2527 15.0239 23.6861 10.8546 28.6444 10.834H218.071C223.029 10.834 228.463 15.0239 230.147 20.0084C233.049 28.6152 235.652 37.0259 238.545 45.22C241.83 54.6627 236.541 63.4552 226.666 64.8278Z" fill="#DEDEDE"></path>
  <path d="M226.666 64.839C220.231 65.7368 213.774 66.4798 207.318 67.1713C145.026 74.0747 82.1201 73.2913 20.0195 64.839C10.1442 63.4664 4.82441 54.6738 8.18158 45.2311C11.0739 37.0474 13.677 28.6264 16.5797 20.0196C18.2634 15.0454 23.6969 10.8658 28.6551 10.8555H218.072C223.02 10.8555 228.453 15.0454 230.137 20.0196C233.039 28.6264 235.653 37.0474 238.535 45.2311C241.83 54.6738 236.552 63.4664 226.666 64.839Z" fill="#DEDEDE"></path>
  <path d="M226.678 64.8487C220.243 65.7466 213.776 66.4896 207.32 67.181C145.031 74.0844 82.1288 73.3011 20.0316 64.8487C10.1563 63.4762 4.84686 54.6836 8.19369 45.2409C11.086 37.0572 13.6891 28.6465 16.5918 20.0396C18.2755 15.0551 23.709 10.8859 28.6672 10.8652H218.073C223.032 10.8652 228.465 15.0551 230.149 20.0396C233.052 28.6465 235.655 37.0572 238.547 45.2409C241.832 54.6836 236.553 63.4762 226.678 64.8487Z" fill="#DFDFDF"></path>
  <path d="M226.686 64.859C220.24 65.7569 213.784 66.4999 207.328 67.1913C145.039 74.0947 82.1366 73.3114 20.0394 64.859C10.1642 63.4865 4.85467 54.6939 8.20151 45.2512C11.0938 37.0572 13.6969 28.6465 16.5996 20.0396C18.2833 15.0551 23.7271 10.8859 28.6751 10.8652H218.071C223.019 10.8652 228.452 15.0551 230.146 20.0396C233.049 28.6465 235.652 37.0572 238.544 45.2512C241.829 54.6939 236.561 63.4865 226.686 64.859Z" fill="#E0E0E0"></path>
  <path d="M226.686 64.8694C220.251 65.7673 213.795 66.5103 207.339 67.2017C145.05 74.1051 82.1475 73.3218 20.0503 64.8694C10.175 63.4969 4.86556 54.7043 8.22273 45.2616C11.1047 37.0882 13.7181 28.6775 16.6415 20.0707C18.3355 15.0862 23.769 10.9169 28.7169 10.8963H218.071C223.019 10.8963 228.401 15.0862 230.137 20.0707C233.039 28.6775 235.653 37.0882 238.535 45.2822C241.881 54.7043 236.562 63.4969 226.686 64.8694Z" fill="#E1E0E0"></path>
  <path d="M226.699 64.8805C220.263 65.7784 213.797 66.5214 207.341 67.2128C145.059 74.1162 82.163 73.3329 20.0727 64.8805C10.1975 63.508 4.87763 54.7154 8.2348 45.2727C11.1168 37.0787 13.7302 28.6679 16.6226 20.0611C18.3166 15.0766 23.7501 10.9074 28.698 10.8867H218.073C223.031 10.8867 228.465 15.0766 230.149 20.0611C233.051 28.6679 235.654 37.0787 238.547 45.2727C241.883 54.7154 236.574 63.508 226.699 64.8805Z" fill="#E1E1E1"></path>
  <path d="M226.706 64.8901C220.261 65.7879 213.804 66.5309 207.348 67.2224C145.066 74.1259 82.1708 73.3425 20.0805 64.8901C10.2053 63.5175 4.88545 54.725 8.24261 45.2822C11.1246 37.0882 13.738 28.6775 16.6407 20.0707C18.3244 15.0862 23.7579 10.9169 28.7058 10.8963H218.071C223.019 10.8963 228.452 15.0862 230.146 20.0707C233.038 28.6775 235.652 37.0882 238.534 45.2822C241.891 54.725 236.582 63.5175 226.706 64.8901Z" fill="#E2E2E2"></path>
  <path d="M226.707 64.9007C220.271 65.7985 213.815 66.5416 207.359 67.233C145.077 74.1365 82.1815 73.3532 20.0912 64.9007C10.216 63.5282 4.89619 54.7356 8.25336 45.2929C11.1354 37.1195 13.7488 28.7088 16.6411 20.1019C18.3249 15.1174 23.7583 10.9482 28.7166 10.9275H218.071C223.029 10.9275 228.463 15.1174 230.147 20.1019C233.049 28.7088 235.652 37.1195 238.545 45.3135C241.902 54.7356 236.582 63.5282 226.707 64.9007Z" fill="#E3E3E2"></path>
  <path d="M226.719 64.911C220.273 65.8089 213.817 66.5519 207.361 67.2433C145.082 74.147 82.1902 73.3637 20.1034 64.911C10.2281 63.5385 4.91863 54.7459 8.26547 45.3032C11.1578 37.1092 13.7609 28.6984 16.6636 20.0916C18.3473 15.1174 23.7807 10.9482 28.739 10.9275H218.073C223.031 10.9275 228.465 15.1174 230.148 20.0916C233.051 28.6984 235.654 37.1092 238.546 45.3032C241.904 54.7459 236.594 63.5385 226.719 64.911Z" fill="#E3E3E3"></path>
  <path d="M226.719 64.9218C220.284 65.8197 213.828 66.5627 207.372 67.2541C145.093 74.1578 82.2009 73.3745 20.1141 64.9218C10.2389 63.5493 4.92938 54.7567 8.27621 45.314C11.1685 37.1406 13.7716 28.7299 16.6433 20.1334C18.3271 15.1489 23.7605 10.9796 28.7188 10.959H218.073C223.021 10.959 228.403 15.1489 230.138 20.1334C233.041 28.7299 235.654 37.1406 238.536 45.3346C241.914 54.7567 236.594 63.5493 226.719 64.9218Z" fill="#E4E4E4"></path>
  <path d="M226.727 64.9327C220.292 65.8305 213.836 66.5736 207.38 67.265C145.101 74.1687 82.2089 73.3854 20.1221 64.9327C10.2468 63.5602 4.93734 54.7676 8.2945 45.3249C11.1765 37.1309 13.7796 28.7304 16.6823 20.1236C18.366 15.1391 23.7994 10.9699 28.7577 10.9492H218.071C223.029 10.9492 228.463 15.1391 230.146 20.1236C233.049 28.7304 235.652 37.1309 238.544 45.3249C241.912 54.7676 236.602 63.5602 226.727 64.9327Z" fill="#E5E5E5"></path>
  <path d="M226.737 64.9425C220.292 65.8403 213.836 66.5833 207.38 67.2851C145.104 74.1799 82.2156 73.3931 20.1323 64.9425C10.2571 63.5699 4.94759 54.7774 8.30476 45.3346C11.1868 37.1509 13.8002 28.7402 16.6925 20.1334C18.3763 15.1489 23.8097 10.9796 28.768 10.959H218.071C223.029 10.959 228.452 15.1489 230.146 20.1334C233.039 28.7402 235.652 37.1509 238.534 45.3346C241.922 54.7774 236.664 63.5699 226.737 64.9425Z" fill="#E6E5E5"></path>
  <path d="M226.74 64.9523C220.304 65.8501 213.848 66.5931 207.392 67.2949C145.12 74.1898 82.235 73.403 20.1552 64.9523C10.28 63.5797 4.96015 54.7872 8.31732 45.3444C11.1993 37.1607 13.8127 28.75 16.7051 20.1432C18.3991 15.1587 23.8326 10.9894 28.7805 10.9688H218.073C223.021 10.9688 228.454 15.1587 230.138 20.1432C233.041 28.75 235.644 37.1607 238.536 45.3444C241.924 54.7872 236.667 63.5797 226.74 64.9523Z" fill="#E6E6E6"></path>
  <path d="M226.747 64.9622C220.312 65.8601 213.856 66.6031 207.4 67.3049C145.128 74.1998 82.2429 73.413 20.163 64.9622C10.2878 63.5897 4.96797 54.7971 8.32513 45.3544C11.2071 37.1707 13.8206 28.76 16.7232 20.1532C18.407 15.1686 23.8404 10.9994 28.7883 10.9788H218.071C223.029 10.9788 228.462 15.1686 230.146 20.1532C233.049 28.76 235.652 37.1707 238.534 45.3544C241.932 54.7971 236.664 63.5897 226.747 64.9622Z" fill="#E7E7E7"></path>
  <path d="M226.76 64.973C220.314 65.8708 213.858 66.6139 207.402 67.3156C145.133 74.2105 82.2515 73.4237 20.1751 64.973C10.2999 63.6004 4.99041 54.8079 8.33725 45.3652C11.2296 37.1815 13.8327 28.7707 16.7353 20.1639C18.4191 15.1794 23.8525 11.0101 28.8005 10.9998H218.124C223.072 10.9998 228.454 15.1278 230.189 20.1639C233.092 28.7707 235.705 37.1815 238.587 45.3652C241.944 54.8079 236.666 63.6004 226.76 64.973Z" fill="#E8E8E8"></path>
  <path d="M226.76 64.9829C220.325 65.8808 213.869 66.6238 207.412 67.3256C145.144 74.2204 82.2623 73.4336 20.1859 64.9829C10.3106 63.6104 5.00115 54.8178 8.34799 45.3751C11.2403 37.1914 13.8434 28.7807 16.7461 20.1739C18.4298 15.1997 23.8633 11.0304 28.8112 11.0098H218.135C223.083 11.0098 228.516 15.1997 230.2 20.1739C233.103 28.7807 235.706 37.1914 238.598 45.3751C241.945 54.8178 236.666 63.6104 226.76 64.9829Z" fill="#E8E8E8"></path>
  <path d="M226.771 64.9933C220.335 65.8911 213.879 66.6341 207.423 67.3359C145.154 74.2307 82.273 73.444 20.1966 64.9933C10.3214 63.6207 5.0119 54.8281 8.35873 45.3854C11.2511 37.1914 13.8542 28.7807 16.7568 20.1739C18.4406 15.1997 23.874 11.0304 28.822 11.0098H218.135C223.093 11.0098 228.527 15.1997 230.211 20.1739C233.103 28.7807 235.716 37.1914 238.598 45.3854C241.956 54.8281 236.667 63.6207 226.771 64.9933Z" fill="#E9E9E9"></path>
  <path d="M226.768 65.005C220.333 65.9028 213.877 66.6458 207.421 67.3476C145.155 74.2423 82.2775 73.4556 20.2046 65.005C10.3293 63.6324 5.01986 54.8399 8.37702 45.3971C11.259 37.2031 13.8621 28.7924 16.7648 20.1959C18.4485 15.2114 23.882 11.0421 28.8402 11.0215H218.143C223.091 11.0215 228.524 15.2114 230.208 20.1959C233.111 28.7924 235.714 37.2031 238.606 45.3971C241.953 54.8399 236.664 63.6427 226.768 65.005Z" fill="#EAEAEA"></path>
  <path d="M226.781 65.0146C220.346 65.9124 213.941 66.6554 207.433 67.3262C145.169 74.2314 82.2914 73.455 20.2172 65.0146C10.3523 63.6523 5.03251 54.8495 8.38967 45.4067C11.2717 37.2127 13.8851 28.802 16.7774 20.2055C18.4612 15.221 23.8946 11.0517 28.8529 11.0311H218.156C223.104 11.0311 228.485 15.221 230.221 20.2055C233.124 28.802 235.727 37.2127 238.609 45.4067C241.966 54.8495 236.667 63.6523 226.781 65.0146Z" fill="#EBEAEA"></path>
  <path d="M226.791 65.0246C220.356 65.9224 213.9 66.6655 207.444 67.3672C145.178 74.2621 82.3004 73.4753 20.2275 65.0246C10.3626 63.6624 5.04276 54.8595 8.39993 45.4168C11.2819 37.2228 13.8953 28.8223 16.7877 20.2155C18.4818 15.231 23.9049 11.0618 28.8631 11.0411H218.156C223.114 11.0411 228.485 15.231 230.231 20.2155C233.123 28.8223 235.737 37.2228 238.619 45.4168C241.976 54.8595 236.667 63.6624 226.791 65.0246Z" fill="#EBEBEB"></path>
  <path d="M226.79 65.0337C220.355 65.9315 213.899 66.6746 207.442 67.3763C145.184 74.2715 82.3129 73.4847 20.2469 65.0337C10.3717 63.6715 5.06219 54.8789 8.40903 45.4259C11.291 37.2319 13.9044 28.8314 16.8071 20.2246C18.4909 15.2401 23.9243 11.0709 28.8722 11.0605H218.165C223.113 11.0605 228.494 15.1885 230.23 20.2246C233.133 28.8314 235.736 37.2319 238.628 45.4259C241.975 54.8789 236.665 63.6715 226.79 65.0337Z" fill="#ECECEC"></path>
  <path d="M226.8 65.0438C220.365 65.9416 213.909 66.6846 207.453 67.3864C145.194 74.2815 82.3231 73.4948 20.2571 65.0438C10.3819 63.6815 5.07243 54.9406 8.37794 45.4669C11.2703 37.2729 13.8734 28.8725 16.776 20.2656C18.4598 15.2914 23.8932 11.1222 28.8412 11.1016H218.165C223.123 11.1016 228.556 15.2914 230.24 20.2656C233.132 28.8725 235.746 37.2729 238.628 45.4669C241.985 54.9406 236.665 63.6815 226.8 65.0438Z" fill="#EDEDED"></path>
  <path d="M226.812 65.0658C220.366 65.9533 213.92 66.6964 207.464 67.3981C145.206 74.2912 82.3355 73.5079 20.2687 65.0658C10.4451 63.6933 5.08397 54.942 8.43081 45.4786C11.3231 37.2949 13.9262 28.8842 16.8289 20.2774C18.5126 15.3032 23.9461 11.1339 28.894 11.1133H218.176C223.124 11.1133 228.558 15.3032 230.241 20.2774C233.144 28.8842 235.757 37.2949 238.639 45.4786C241.986 54.942 236.666 63.6933 226.812 65.0658Z" fill="#EDEDED"></path>
  <path d="M226.811 65.0756C220.375 65.9631 213.919 66.7061 207.463 67.4079C145.208 74.301 82.341 73.5177 20.2776 65.0756C10.4437 63.703 5.09293 54.9414 8.4501 45.4884C11.3321 37.3047 13.9352 28.8939 16.8378 20.2871C18.5216 15.3129 23.955 11.1437 28.903 11.123H218.185C223.133 11.123 228.515 15.3129 230.25 20.2871C233.153 28.8939 235.756 37.3047 238.638 45.4884C241.995 54.9414 236.665 63.703 226.811 65.0756Z" fill="#EEEEEE"></path>
  <path d="M226.822 65.0854C220.387 65.9729 213.931 66.7159 207.475 67.4176C145.22 74.3108 82.3528 73.5274 20.2894 65.0854C10.4452 63.7128 5.10469 54.9409 8.46185 45.4981C11.3439 37.3144 13.9469 28.9037 16.8496 20.3072C18.5334 15.3227 23.9668 11.1535 28.9147 11.1328H218.187C223.145 11.1328 228.578 15.3227 230.262 20.3072C233.154 28.9037 235.768 37.3144 238.65 45.4981C242.007 54.9409 236.667 63.7128 226.822 65.0854Z" fill="#EFEFEF"></path>
  <path d="M226.821 65.0971C220.385 65.9846 213.94 66.7276 207.483 67.4294C145.229 74.3225 82.3616 73.5392 20.2982 65.0971C10.4437 63.7245 5.11352 54.9423 8.47068 45.5099C11.3527 37.3262 13.9661 28.9154 16.8584 20.3189C18.5422 15.3344 23.9756 11.1652 28.9236 11.1445H218.195C223.143 11.1445 228.525 15.3344 230.261 20.3189C233.163 28.9154 235.766 37.3262 238.659 45.5099C242.005 54.9423 236.665 63.7245 226.821 65.0971Z" fill="#F0EFEF"></path>
  <path d="M226.831 65.1068C220.396 65.9943 213.94 66.7374 207.484 67.4391C145.232 74.3321 82.3688 73.5488 20.3089 65.1068C10.444 63.7343 5.13454 54.9417 8.48138 45.5196C11.3634 37.3359 13.9768 28.9252 16.8691 20.3287C18.5529 15.3442 23.9863 11.1749 28.9446 11.1543H218.206C223.154 11.1543 228.588 15.3442 230.271 20.3287C233.174 28.9252 235.777 37.3359 238.659 45.5196C242.016 54.9417 236.665 63.7343 226.831 65.1068Z" fill="#F0F0F0"></path>
  <path d="M226.843 65.118C220.407 66.0055 213.951 66.7485 207.495 67.4503C145.244 74.3433 82.3801 73.56 20.3202 65.118C10.445 63.7454 5.14582 54.9426 8.49265 45.5308C11.3746 37.3987 13.9881 28.9364 16.8804 20.3399C18.5745 15.3553 23.9976 11.1964 28.9559 11.1758H218.207C223.165 11.1758 228.588 15.3553 230.272 20.3399C233.175 28.9364 235.788 37.3471 238.67 45.5308C242.017 54.9426 236.666 63.7454 226.843 65.118Z" fill="#F1F1F1"></path>
  <path d="M226.842 65.1278C220.406 66.0153 213.95 66.7583 207.504 67.4601C145.256 74.3531 82.3962 73.5698 20.3398 65.1278C10.4439 63.7552 5.15505 54.942 8.50189 45.5406C11.3942 37.3569 13.9973 28.9564 16.9 20.3496C18.5837 15.3754 24.0068 11.2062 28.9651 11.1855H218.216C223.164 11.1855 228.598 15.3754 230.281 20.3496C233.184 28.9564 235.787 37.3569 238.669 45.5406C242.026 54.942 236.717 63.7552 226.842 65.1278Z" fill="#F2F2F2"></path>
  <path d="M226.854 65.1374C220.418 66.0249 213.962 66.7679 207.506 67.4697C145.262 74.3628 82.4047 73.5794 20.3517 65.1374C10.4455 63.7648 5.16697 54.9413 8.52414 45.5502C11.4061 37.3665 14.0092 28.9661 16.9119 20.3593C18.5956 15.3851 24.0291 11.2158 28.977 11.1952H218.228C223.176 11.1952 228.558 15.3851 230.293 20.3593C233.186 28.9661 235.799 37.3665 238.681 45.5502C242.028 54.9413 236.718 63.7648 226.854 65.1374Z" fill="#F2F2F2"></path>
  <path d="M226.862 65.1492C220.427 66.0368 213.971 66.7798 207.515 67.4815C145.27 74.3746 82.4135 73.5913 20.3605 65.1492C10.444 63.7767 5.17581 54.9428 8.53298 45.5724C11.415 37.399 14.0181 28.9779 16.9207 20.3711C18.6045 15.3969 24.0379 11.2277 28.9859 11.207H218.227C223.185 11.207 228.556 15.3969 230.292 20.3711C233.195 28.9779 235.798 37.3783 238.69 45.5724C242.037 54.9428 236.727 63.7767 226.862 65.1492Z" fill="#F3F3F3"></path>
  <path d="M226.864 65.159C220.429 66.0465 213.973 66.7896 207.527 67.4913C145.282 74.3844 82.4255 73.6011 20.3725 65.159C10.4973 63.7865 5.18782 54.9939 8.54499 45.5512C11.4786 37.3984 14.0301 28.9877 16.9327 20.3912C18.6165 15.4067 24.0499 11.2374 28.9979 11.2168H218.239C223.187 11.2168 228.62 15.4067 230.304 20.3912C233.207 28.9877 235.81 37.3881 238.692 45.5821C242.049 54.9939 236.739 63.7865 226.864 65.159Z" fill="#F4F4F4"></path>
  <path d="M226.872 65.1687C220.437 66.0562 213.981 66.7992 207.525 67.501C145.284 74.394 82.4302 73.6107 20.3807 65.1687C10.5158 63.7961 5.20632 55.0035 8.55316 45.5608C11.4765 37.3978 14.0486 28.9973 16.9409 20.4008C18.6247 15.4163 24.0581 11.2471 29.006 11.2264H218.247C223.195 11.2264 228.577 15.4163 230.312 20.4008C233.204 28.9973 235.818 37.3978 238.7 45.5918C242.047 55.0035 236.737 63.7961 226.872 65.1687Z" fill="#F5F4F4"></path>
  <path d="M226.873 65.1799C220.437 66.0674 213.991 66.8105 207.535 67.5122C145.294 74.4053 82.441 73.622 20.3915 65.1799C10.5265 63.8074 5.21706 55.0148 8.5639 45.5721C11.4769 37.3987 14.0593 29.0086 16.9516 20.4121C18.6354 15.4276 24.0688 11.2584 29.0168 11.248H218.247C223.195 11.248 228.629 15.4276 230.312 20.4121C233.215 29.0086 235.818 37.3987 238.731 45.6547C242.057 55.0148 236.748 63.8074 226.873 65.1799Z" fill="#F5F5F5"></path>
  <path d="M226.882 65.1897C220.447 66.0772 213.99 66.8203 207.545 67.522C145.304 74.4151 82.4503 73.6317 20.4008 65.1897C10.5359 63.8172 5.27805 55.0246 8.57324 45.6541C11.4759 37.3982 14.0687 29.0184 16.961 20.4219C18.6447 15.4374 24.0782 11.2785 29.0261 11.2578H218.257C223.205 11.2578 228.586 15.3858 230.322 20.4219C233.214 29.0184 235.828 37.3982 238.73 45.6541C242.056 55.0246 236.747 63.8172 226.882 65.1897Z" fill="#F6F6F6"></path>
  <path d="M226.894 65.1997C220.458 66.0872 214.002 66.8302 207.546 67.532C145.309 74.4254 82.4586 73.6421 20.4126 65.1997C10.5477 63.8271 5.27952 55.0346 8.58504 45.6538C11.4774 37.3978 14.0805 29.0284 16.9831 20.4319C18.7082 15.4577 24.09 11.2884 29.0379 11.2678H218.268C223.216 11.2678 228.598 15.4577 230.323 20.4319C233.226 29.0284 235.829 37.3978 238.732 45.6538C242.068 55.0346 236.759 63.8271 226.894 65.1997Z" fill="#F7F7F7"></path>
  <path d="M226.893 65.2608C220.457 66.1483 214.012 66.8914 207.556 67.5931C145.321 74.4858 82.4749 73.7024 20.4323 65.2608C10.5571 63.8367 5.2786 55.0441 8.60478 45.653C11.4868 37.4693 14.0899 29.0689 16.9925 20.4621C18.7073 15.4672 24.0994 11.298 29.037 11.2773H218.268C223.215 11.2773 228.649 15.4672 230.333 20.4414C233.235 29.0482 235.838 37.4487 238.731 45.653C242.078 55.0441 236.768 63.8367 226.893 65.2608Z" fill="#F7F7F7"></path>
  <path d="M226.905 65.2622C220.469 66.1601 214.013 66.8928 207.567 67.5945C145.333 74.4871 82.4868 73.7038 20.4441 65.2622C10.5689 63.8484 5.28008 55.0558 8.61658 45.6544C11.4986 37.4707 14.1017 29.0703 17.0043 20.4635C18.7087 15.4789 24.1215 11.3097 29.0385 11.2891H218.279C223.227 11.2891 228.661 15.4789 230.344 20.4531C233.237 29.06 235.85 37.4604 238.732 45.6441C242.079 55.0558 236.77 63.8484 226.905 65.2622Z" fill="#F8F8F8"></path>
  <path d="M226.913 65.2616C220.478 66.1594 214.021 66.9024 207.565 67.5939C145.335 74.4869 82.4916 73.7036 20.4525 65.2616C10.5876 63.8581 5.2781 55.0655 8.62493 45.6537C11.5069 37.47 14.11 29.0696 17.0127 20.4628C18.7068 15.4886 24.1299 11.3194 29.0365 11.2987H218.277C223.236 11.2987 228.659 15.4886 230.342 20.4628C233.245 29.0696 235.848 37.47 238.73 45.6537C242.087 55.0655 236.778 63.8581 226.913 65.2616Z" fill="#F9F9F9"></path>
  <path d="M226.915 65.2611C220.479 66.159 214.033 66.902 207.577 67.5934C145.347 74.4865 82.5034 73.7031 20.4643 65.2611C10.5994 63.8679 5.27958 55.0754 8.63674 45.6533C11.5187 37.4696 14.1322 29.0692 17.0245 20.4727C18.7082 15.4882 24.1417 11.3189 29.0896 11.3086H218.289C223.237 11.3086 228.619 15.4882 230.354 20.4727C233.247 29.0692 235.86 37.4696 238.742 45.6533C242.089 55.0754 236.779 63.8679 226.915 65.2611Z" fill="#F9F9F9"></path>
  <path d="M226.924 65.2611C220.488 66.159 214.032 66.902 207.587 67.5934C145.356 74.4865 82.5128 73.7032 20.4737 65.2611C10.6088 63.8783 5.27862 55.096 8.64611 45.6533C11.5281 37.4696 14.1415 29.0692 17.0339 20.4727C18.7176 15.4882 24.1511 11.3292 29.099 11.3086H218.299C223.246 11.3086 228.628 15.4366 230.364 20.4727C233.256 29.1414 235.859 37.4902 238.731 45.6533C242.098 55.096 236.789 63.8783 226.924 65.2611Z" fill="#FAFAFA"></path>
  <path d="M226.926 65.2611C220.501 66.159 214.045 66.902 207.599 67.5934C145.368 74.4865 82.5251 73.7032 20.486 65.2611C10.6211 63.8886 5.28059 55.1063 8.65842 45.6533C11.5507 37.4696 14.1538 29.0692 17.0462 20.4727C18.7299 15.4882 24.1634 11.3292 29.1113 11.3086H218.301C223.248 11.3086 228.682 15.4882 230.366 20.4727C233.268 29.1414 235.871 37.5005 238.733 45.6533C242.1 55.1063 236.801 63.8886 226.926 65.2611Z" fill="#FBFBFB"></path>
  <path d="M226.935 65.2611C220.5 66.159 214.054 66.902 207.598 67.5934C145.371 74.4864 82.5312 73.7031 20.4955 65.2611C10.6306 63.8989 5.2798 55.1166 8.67828 45.6533C11.5603 37.4696 14.1634 29.0692 17.066 20.4727C18.7498 15.4985 24.1729 11.3292 29.1208 11.3086H218.31C223.258 11.3086 228.691 15.4985 230.375 20.4727C233.268 29.1414 235.881 37.5109 238.732 45.6533C242.11 55.1166 236.8 63.8989 226.935 65.2611Z" fill="#FCFCFC"></path>
  <path d="M226.946 65.2611C220.51 66.159 214.054 66.902 207.608 67.5934C145.381 74.4864 82.5415 73.7031 20.5059 65.2611C10.641 63.8886 5.33147 55.1063 8.68863 45.6533C11.5706 37.4799 14.1737 29.0692 17.0764 20.4727C18.7601 15.4985 24.1832 11.3292 29.1312 11.3086H218.32C223.268 11.3086 228.65 15.4985 230.375 20.4727C233.278 29.0692 235.881 37.4799 238.763 45.6533C242.12 55.127 236.811 63.9092 226.946 65.2611Z" fill="#FCFCFC"></path>
  <path d="M226.945 65.2617C220.509 66.1595 214.063 66.9026 207.618 67.594C145.394 74.4871 82.5575 73.7038 20.5253 65.2617C10.6501 63.8892 5.35089 55.1069 8.69773 45.6539C11.5797 37.5424 14.1828 29.142 17.0855 20.5352C18.7692 15.561 24.1923 11.3917 29.1403 11.3711H218.319C223.267 11.3711 228.649 15.561 230.384 20.5352C233.277 29.1317 235.89 37.5424 238.772 45.7261C242.119 55.1379 236.809 63.9201 226.945 65.2617Z" fill="#FDFDFD"></path>
  <path d="M226.954 65.2616C220.519 66.1594 214.073 66.9024 207.617 67.5939C145.397 74.487 82.5638 73.7036 20.535 65.2616C10.6701 63.889 5.36062 55.1068 8.70745 45.6537C11.5895 37.47 14.1925 29.0696 17.0952 20.4628C18.779 15.4886 24.2021 11.3194 29.1603 11.2987H218.329C223.277 11.2987 228.71 15.4886 230.394 20.4628C233.286 29.0696 235.889 37.47 238.782 45.6537C242.129 55.148 236.819 63.9303 226.954 65.2616Z" fill="#FEFEFE"></path>
  <path d="M226.965 65.3138C220.53 66.2116 214.073 66.9546 207.628 67.6461C145.407 74.5392 82.5745 73.7558 20.5457 65.3138C10.6808 63.9412 5.37136 55.159 8.71819 45.7059C11.6002 37.5222 14.2136 29.1218 17.1059 20.5253C18.7897 15.5408 24.2231 11.3819 29.1711 11.3613H218.34C223.288 11.3613 228.669 15.4892 230.394 20.5253C233.297 29.1218 235.9 37.5222 238.782 45.7059C242.129 55.159 236.83 63.9412 226.965 65.3138Z" fill="#FEFEFE"></path>
  <path d="M226.967 65.3236C220.528 66.1836 214.086 66.9611 207.64 67.6559C145.411 74.3784 82.5992 73.5953 20.5579 65.3236C10.7033 63.8995 5.38352 55.1688 8.73036 45.7158C11.6124 37.5321 14.2258 29.1317 17.1181 20.5352C18.8019 15.5507 24.2353 11.3917 29.1832 11.3711H218.341C223.289 11.3711 228.723 15.5507 230.407 20.5352C233.299 29.1317 235.912 37.5321 238.794 45.7158C242.141 55.1688 236.821 63.8995 226.967 65.3236Z" fill="#F2F3F3"></path>
  <path d="M243.803 51.9594C239.093 38.3096 234.372 24.2057 229.641 9.64772C227.927 4.38457 222.411 -0.00139883 217.38 -0.0117188H27.3954C22.3648 -0.0117188 16.8384 4.38457 15.1237 9.64772C10.4133 24.1575 5.71327 38.2614 1.02357 51.9594C-2.38525 61.7943 3.02754 70.9996 13.0474 72.4857C78.1492 81.4427 144.105 82.382 209.436 75.2824C216.881 74.4568 224.325 73.5246 231.769 72.4857C241.83 70.9996 247.202 61.7943 243.803 51.9594ZM225.768 63.3939C219.322 64.2539 212.869 65.0313 206.41 65.7262C144.079 72.4641 81.1619 71.681 19.018 63.3939C9.15307 61.9697 3.82293 53.2184 7.18009 43.786C10.0724 35.5301 12.6755 27.1709 15.5782 18.5538C17.2619 13.5693 22.7057 9.40005 27.664 9.37941H217.132C222.09 9.37941 227.524 13.5693 229.218 18.5538C232.121 27.1709 234.724 35.5817 237.616 43.786C240.973 53.2184 235.633 61.9697 225.768 63.3939Z" fill="url(#paint0_linear_254_17696)"></path>
  <path d="M225.767 63.3948C219.321 64.2548 212.869 65.0322 206.409 65.7271C144.078 72.465 81.1611 71.6819 19.0172 63.3948C16.5742 63.1122 14.2329 62.2562 12.1844 60.8966C10.136 59.5371 8.43857 57.7126 7.23096 55.5723C8.23996 57.9457 9.86383 60.0076 11.9354 61.5457C14.007 63.0839 16.4515 64.0427 19.0172 64.3236C81.1496 72.7566 144.082 73.5572 206.409 66.7075C212.869 66.0195 219.321 65.2248 225.767 64.3236C228.334 64.0424 230.78 63.0836 232.853 61.5456C234.926 60.0076 236.552 57.9459 237.564 55.5723C236.355 57.7139 234.656 59.5392 232.606 60.8988C230.555 62.2585 228.212 63.1138 225.767 63.3948Z" fill="url(#paint1_linear_254_17696)"></path>
  <g style="mix-blend-mode:multiply" opacity="0.5">
    <path d="M238.09 43.3317C235.187 34.9932 232.563 26.438 229.65 17.6764C227.956 12.6093 222.502 8.38845 217.523 8.38845H27.2701C22.2912 8.38845 16.8371 12.6609 15.143 17.728C12.23 26.4896 9.60628 35.0448 6.70363 43.3833C3.6047 52.1862 7.86056 60.4008 16.2483 62.8157C8.19111 60.2873 4.15218 52.341 7.1788 43.8477C10.0711 35.5918 12.6742 27.2326 15.5769 18.6155C17.2606 13.631 22.7044 9.46172 27.6627 9.44108H217.131C222.089 9.44108 227.523 13.631 229.217 18.6155C232.119 27.2326 234.722 35.6434 237.615 43.8477C240.641 52.341 236.582 60.2873 228.545 62.8157C236.923 60.3492 241.178 52.1346 238.09 43.3317Z" fill="#1D1D1B"></path>
  </g>
  <g style="mix-blend-mode:multiply" opacity="0.5">
    <path d="M244.443 54.3223C245.527 62.0725 240.053 70.442 231.768 71.6494C224.331 72.6608 216.886 73.5655 209.435 74.3635C144.098 81.2789 78.1672 80.3677 13.0463 71.6494C9.16068 70.9747 5.67887 68.845 3.31041 65.6946C0.941955 62.5441 -0.134879 58.6099 0.299363 54.6938C-1.33274 63.4451 3.95609 71.1437 13.0463 72.4853C78.1481 81.4424 144.104 82.3816 209.435 75.282C216.88 74.4564 224.324 73.5242 231.768 72.4853C240.982 71.1231 246.292 63.1974 244.443 54.3223Z" fill="#1D1D1B"></path>
  </g>
  <path d="M28.3459 1.05068H216.42C221.409 1.05068 226.873 5.32312 228.567 10.4521C233.278 24.5904 237.95 38.3228 242.585 51.6492C237.978 38.4913 233.887 23.641 229.032 9.39949C227.204 4.01249 222.421 -0.00195312 217.38 -0.00195312H27.3956C22.3753 -0.00195312 17.6237 4.00217 15.7333 9.39949C10.7854 23.5481 6.84974 38.4294 2.24268 51.6492C6.88417 38.3503 11.536 24.6179 16.1982 10.4521C17.9026 5.32312 23.367 1.061 28.3459 1.05068Z" fill="url(#paint2_linear_254_17696)"></path>
  <path d="M107.71 33.0435C108.981 32.4973 110.057 31.5785 110.795 30.4084C111.533 29.2383 111.898 27.8721 111.842 26.4903C111.842 19.7514 105.272 19.0187 102.452 19.0187H94.8595V44.5192H100.737V35.1591H102.266C102.896 35.3242 104.394 37.8835 106.852 42.1044L108.267 44.5192H114.982L114.011 42.8887C110.995 37.6875 109.001 34.3025 107.71 33.0435ZM102.617 30.1746H100.789V23.9826H102.617C104.683 23.9826 106.057 25.1694 106.057 27.0063C106.07 27.4492 105.988 27.8898 105.816 28.2982C105.644 28.7066 105.386 29.0734 105.06 29.3738C104.734 29.6741 104.347 29.901 103.926 30.0392C103.504 30.1773 103.058 30.2235 102.617 30.1746ZM60.1102 28.317C59.5889 29.0958 59.1097 29.9019 58.6744 30.7318C58.2127 29.9486 57.7093 29.1907 57.1663 28.4614L50.5449 19.0187H45.2561V44.5192H51.0924V29.0394C51.3299 29.4109 51.5779 29.7411 51.8051 30.0714L52.0634 30.4222L57.2902 37.7907H60.0276L64.9239 30.2984C65.1305 29.9888 65.3784 29.5966 65.616 29.2664V44.5192H71.4523V19.0187H66.1635L60.1102 28.317ZM28.4806 18.9052L18.4917 44.5192H24.5036L26.7968 38.4305H34.7404L37.1472 44.478H43.3451L32.8914 18.9052H28.4806ZM28.4806 33.6111L30.1436 29.2045C30.3502 28.6575 30.5568 28.0693 30.7324 27.5017C30.8874 28.0383 31.094 28.6472 31.3109 29.2767L32.8397 33.6111H28.4806ZM89.8289 23.9826L91.4093 19.0497H76.173V44.5192H91.2441V39.5863H82.0506V33.9929H89.9838V29.0187H82.0506V23.9826H89.8289ZM193.777 32.0425C193.777 32.7958 193.777 33.8072 193.777 34.7463C193.271 34.0136 192.744 33.2808 192.062 32.4243L181.567 19.0084H175.834V44.5192H181.671V30.5873C181.671 29.8753 181.671 29.0084 181.671 28.255C182.177 28.9774 182.704 29.7514 183.416 30.6183L194.314 44.5192H199.634V19.0187H193.798L193.777 32.0425ZM116.841 44.5192H122.719V19.0187H116.841V44.5192ZM216.007 18.9052H211.565L201.545 44.5192H207.557L209.871 38.4305H217.814L220.221 44.478H226.419L216.007 18.9052ZM211.658 33.6111L213.321 29.2045C213.517 28.6575 213.724 28.0693 213.899 27.5017C214.065 28.0383 214.261 28.6472 214.488 29.2767L216.007 33.6111H211.658ZM146.105 38.2034C144.283 39.2666 142.214 39.8358 140.104 39.8546C135.641 39.8546 132.522 36.5213 132.522 31.7535C132.522 25.8505 136.85 23.7659 140.558 23.7659C142.682 23.7653 144.765 24.3472 146.58 25.448L147.118 25.7576L147.2 20.2158L147.004 20.1126C144.922 19.1615 142.651 18.6956 140.362 18.7504C132.15 18.7504 126.19 24.3335 126.19 32.0115C126.19 39.6895 131.437 44.9011 139.236 44.9011C142.276 44.9054 145.261 44.0965 147.882 42.5585L148.151 42.4037L146.426 37.9764L146.105 38.2034ZM159.121 18.9052L149.091 44.5192H155.061L157.396 38.4305H165.329L167.746 44.478H173.944L163.49 18.9052H159.121ZM159.172 33.6111L160.836 29.2045C161.042 28.6575 161.249 28.0693 161.424 27.5017C161.579 28.0383 161.776 28.6472 162.003 29.2767L163.532 33.6111H159.172Z" fill="#E1251B"></path>
  <path d="M19.0083 55.3848C36.2693 56.4168 53.4993 57.4487 70.7293 58.1402C75.0368 58.2743 79.3443 58.3982 83.6415 58.5839L96.564 58.8935C100.882 58.8935 105.179 59.0277 109.487 59.0999H122.409H135.332L148.254 58.8832L161.177 58.5736L167.643 58.3363L174.099 58.1402C191.329 57.4694 208.549 56.458 225.81 55.3848C208.755 58.2537 191.546 60.2042 174.295 61.5148L167.819 61.9586L161.342 62.361L148.378 62.9802L135.435 63.3208L122.45 63.4653L109.476 63.3208C105.148 63.2073 100.82 63.1247 96.4917 62.9802L83.5279 62.361C79.21 62.103 74.8922 61.8038 70.5744 61.5045C53.272 60.1938 36.073 58.2434 19.0083 55.3848Z" fill="#E1251B"></path>
  <path d="M250.622 58.0375C249.753 58.0396 248.903 57.7838 248.179 57.3026C247.456 56.8215 246.891 56.1366 246.558 55.3348C246.224 54.5329 246.136 53.6502 246.306 52.7984C246.475 51.9467 246.893 51.1642 247.508 50.5502C248.122 49.9362 248.905 49.5183 249.758 49.3494C250.61 49.1805 251.494 49.2682 252.297 49.6014C253.099 49.9347 253.785 50.4984 254.266 51.2213C254.748 51.9441 255.004 52.7935 255.002 53.6619C255.002 54.8224 254.54 55.9353 253.719 56.7559C252.898 57.5765 251.784 58.0375 250.622 58.0375ZM250.622 50.0912C249.912 50.0768 249.214 50.274 248.617 50.6575C248.02 51.041 247.551 51.5936 247.269 52.2446C246.987 52.8957 246.906 53.6158 247.036 54.3131C247.165 55.0105 247.5 55.6534 247.997 56.1601C248.494 56.6667 249.13 57.014 249.826 57.1577C250.521 57.3015 251.243 57.2351 251.9 56.9671C252.558 56.6991 253.12 56.2416 253.516 55.6529C253.912 55.0643 254.124 54.3711 254.124 53.6619C254.128 53.1994 254.041 52.7406 253.866 52.312C253.692 51.8834 253.435 51.4934 253.11 51.1644C252.784 50.8354 252.397 50.574 251.97 50.3951C251.543 50.2163 251.085 50.1235 250.622 50.1221V50.0912ZM251.541 56.0148L250.57 54.1469H249.961V56.0148H249.062V51.3192H250.839C251.036 51.3109 251.233 51.3423 251.417 51.4116C251.602 51.4809 251.77 51.5865 251.913 51.7224C252.056 51.8582 252.169 52.0213 252.248 52.2021C252.326 52.3828 252.367 52.5775 252.368 52.7744C252.372 53.0593 252.283 53.3379 252.116 53.5685C251.948 53.7991 251.711 53.9694 251.438 54.054L252.471 56.0458L251.541 56.0148ZM250.767 52.021H249.961V53.4555H250.767C250.868 53.4677 250.971 53.4582 251.069 53.4277C251.166 53.3972 251.256 53.3464 251.333 53.2787C251.409 53.2109 251.471 53.1277 251.512 53.0345C251.554 52.9414 251.576 52.8404 251.576 52.7382C251.576 52.6361 251.554 52.5351 251.512 52.442C251.471 52.3488 251.409 52.2656 251.333 52.1978C251.256 52.13 251.166 52.0792 251.069 52.0487C250.971 52.0183 250.868 52.0088 250.767 52.021Z" fill="#2B2422"></path>
  <defs>
    <linearGradient id="paint0_linear_254_17696" x1="50.8749" y1="114.828" x2="193.785" y2="-28.2282" gradientUnits="userSpaceOnUse">
      <stop stop-color="#00468E"></stop>
      <stop offset="0.3" stop-color="#0068AD"></stop>
      <stop offset="0.5" stop-color="#0090D7"></stop>
      <stop offset="0.7" stop-color="#006EB3"></stop>
      <stop offset="1" stop-color="#00468E"></stop>
    </linearGradient>
    <linearGradient id="paint1_linear_254_17696" x1="122.397" y1="71.3101" x2="122.397" y2="55.5723" gradientUnits="userSpaceOnUse">
      <stop stop-color="#A1DAF8"></stop>
      <stop offset="0.72" stop-color="#009BD9"></stop>
    </linearGradient>
    <linearGradient id="paint2_linear_254_17696" x1="122.409" y1="-0.00195313" x2="122.409" y2="51.6492" gradientUnits="userSpaceOnUse">
      <stop stop-color="#83D0F5"></stop>
      <stop offset="0.22" stop-color="#0095D4"></stop>
      <stop offset="0.3" stop-color="#006FB9"></stop>
      <stop offset="1" stop-color="#006FB9"></stop>
    </linearGradient>
  </defs>
</svg>
