<?xml version="1.0" encoding="UTF-8"?> <svg xmlns="http://www.w3.org/2000/svg" id="Layer_1" data-name="Layer 1" viewBox="0 0 778.76 162"><defs><style> .cls-1 { clip-path: url(#clippath-6); } .cls-2 { clip-path: url(#clippath-7); } .cls-3, .cls-4 { fill: #b64e27; } .cls-4, .cls-5, .cls-6, .cls-7 { fill-rule: evenodd; } .cls-8 { clip-path: url(#clippath-4); } .cls-9 { fill: #231f20; } .cls-10 { clip-path: url(#clippath-9); } .cls-11 { clip-path: url(#clippath-10); } .cls-12, .cls-5 { fill: #fff; } .cls-13 { clip-path: url(#clippath-11); } .cls-14 { fill: none; } .cls-15 { clip-path: url(#clippath-1); } .cls-16 { clip-path: url(#clippath-5); } .cls-17 { clip-path: url(#clippath-8); } .cls-18 { clip-path: url(#clippath-3); } .cls-19 { clip-path: url(#clippath-12); } .cls-20 { clip-path: url(#clippath-14); } .cls-21, .cls-6 { fill: #8c8c8c; } .cls-22 { clip-path: url(#clippath-2); } .cls-23 { clip-path: url(#clippath-13); } .cls-24 { clip-path: url(#clippath); } .cls-7 { fill: #221f1f; } </style><clipPath id="clippath"><polygon class="cls-14" points="27.88 133.66 164.57 133.66 95.37 20.72 27.88 133.66"></polygon></clipPath><clipPath id="clippath-1"><path class="cls-14" d="M108.46,96.47c0,6.69,5.38,12.16,11.98,12.16s11.98-5.47,11.98-12.16-5.38-12.16-11.98-12.16-11.98,5.46-11.98,12.16"></path></clipPath><clipPath id="clippath-2"><polygon class="cls-14" points="27.88 133.66 164.57 133.66 95.37 20.72 27.88 133.66"></polygon></clipPath><clipPath id="clippath-3"><path class="cls-14" d="M96.2,74.22c0,6.69,5.38,12.16,11.99,12.16s11.98-5.47,11.98-12.16-5.38-12.16-11.98-12.16-11.99,5.46-11.99,12.16"></path></clipPath><clipPath id="clippath-4"><polygon class="cls-14" points="27.88 133.66 164.57 133.66 95.37 20.72 27.88 133.66"></polygon></clipPath><clipPath id="clippath-5"><path class="cls-14" d="M71.67,74.22c0,6.69,5.39,12.16,11.99,12.16s11.98-5.47,11.98-12.16-5.38-12.16-11.98-12.16-11.99,5.46-11.99,12.16"></path></clipPath><clipPath id="clippath-6"><polygon class="cls-14" points="27.88 133.66 164.57 133.66 95.37 20.72 27.88 133.66"></polygon></clipPath><clipPath id="clippath-7"><path class="cls-14" d="M83.97,96.47c0,6.69,5.39,12.16,11.99,12.16s11.98-5.47,11.98-12.16-5.39-12.16-11.98-12.16-11.99,5.46-11.99,12.16"></path></clipPath><clipPath id="clippath-8"><polygon class="cls-14" points="27.88 133.66 164.57 133.66 95.37 20.72 27.88 133.66"></polygon></clipPath><clipPath id="clippath-9"><path class="cls-14" d="M59.39,96.47c0,6.69,5.38,12.16,11.99,12.16s11.98-5.47,11.98-12.16-5.39-12.16-11.98-12.16-11.99,5.46-11.99,12.16"></path></clipPath><clipPath id="clippath-10"><polygon class="cls-14" points="27.88 133.66 164.57 133.66 95.37 20.72 27.88 133.66"></polygon></clipPath><clipPath id="clippath-11"><path class="cls-14" d="M71.67,118.3c0,6.69,5.39,12.16,11.99,12.16s11.98-5.47,11.98-12.16-5.38-12.17-11.98-12.17-11.99,5.47-11.99,12.17"></path></clipPath><clipPath id="clippath-12"><polygon class="cls-14" points="27.88 133.66 164.57 133.66 95.37 20.72 27.88 133.66"></polygon></clipPath><clipPath id="clippath-13"><path class="cls-14" d="M96.2,118.3c0,6.69,5.38,12.16,11.99,12.16s11.98-5.47,11.98-12.16-5.38-12.17-11.98-12.17-11.99,5.47-11.99,12.17"></path></clipPath><clipPath id="clippath-14"><polygon class="cls-14" points="27.88 133.66 164.57 133.66 95.37 20.72 27.88 133.66"></polygon></clipPath></defs><g><g><path class="cls-5" d="M70.68,6.15c.43-.53.88-1.01,1.39-1.47.5-.44,1.02-.84,1.58-1.21.46-.28.92-.54,1.41-.77.9-.4,1.79-.71,2.76-.96.88-.2,1.74-.35,2.64-.45.63-.05,1.26-.08,1.88-.1l31.01-.07c.38.03.74.07,1.12.14.35.09.69.2,1.05.34.34.17.65.33.96.55.33.23.63.48.93.77.31.33.59.65.87,1.01l.27.37,69.49,115.22c.66,1.38.89,2.87.94,4.38,0,1.57-.16,3.22-.92,4.62l-16.87,27.85c-.33.52-.66.99-1.07,1.46-.21.24-.44.47-.69.69-.65.55-1.29.96-2.06,1.31-.62.25-1.2.43-1.84.58-.98.2-1.94.29-2.93.34l-135.47.12c-.95-.03-1.85-.12-2.78-.29-.32-.07-.65-.14-.96-.23-1.16-.34-2.17-.81-3.16-1.49-.54-.4-1.02-.82-1.49-1.29-.3-.34-.59-.69-.86-1.06l-15.75-26.92c-.4-.96-.68-1.91-.85-2.92-.1-.7-.15-1.37-.14-2.08.03-.92.16-1.78.37-2.67.17-.6.36-1.16.59-1.74L70.46,6.44l.22-.29Z"></path><path class="cls-7" d="M69.51,5.81C72.39,1.92,76.93.11,82.34.07l31.04-.07c2.46.07,4.51,1.29,6.14,3.67l69.54,115.31c1.48,2.94,1.39,7.65,0,10.08l-16.66,27.51c-2.3,4.09-5.63,5.21-10.17,5.32l-135.1.11c-4.14-.1-7.69-1.41-10.19-4.88l-15.82-27.03c-1.47-3.46-1.48-6.93-.03-10.4L69.51,5.81Z"></path><path class="cls-5" d="M93.85,14.61l-4.08-7.15c-4.16-6.61-14.13-6.27-18.61.37L3.54,120.6c-1.02,2.47-1.19,5.61.05,8.55l11.81,19.8c.34-1.73.3-3.65,1.39-5.38L93.85,14.61ZM92.37,14.72l-3.47-6.16c-4.76-6.16-12.61-5.67-17.13.43L5.68,119.64c-1.34,2.86-1.95,5.71-.94,8.56l10.09,17.16c.33-1.67,1.19-3.35,2.25-5.03L92.37,14.72Z"></path><path class="cls-5" d="M24.04,138.87l-4.43,7.4c-2.32,4.71,1.14,11.71,8.54,11.96l132.82-.33c3.11,0,4.86.12,6.73-2.24l10.39-16.81c-1.59.5-3.68.29-5.64.26l-148.41-.24ZM22.9,137.61l-4.95,8.35c-2.38,4.84,1.91,13.44,9.58,13.61l134.42-.16c3.19,0,5.98-1.22,7.8-3.74l10.98-18.33c-1.62.51-4.5.48-6.52.44l-151.31-.17Z"></path><path class="cls-5" d="M169.92,135.33l8.1.04c7.64-1.1,11.22-10.93,8.56-15.89L118.08,6.15c-1.79-2.62-2.92-3.64-5.98-4.05l-24.3.05c1.35,1.1,3.46,3,4.52,5.31l77.6,127.87ZM170.47,134l7.5-.05c6.46-1.83,9.28-7.2,7.35-14.01L117.39,8.39c-1.73-2.53-2.15-4.11-5.12-4.52h-20.88c1.32,1.06,2.28,2.95,3.26,4.69l75.81,125.44Z"></path><polygon class="cls-5" points="95.19 17.03 24.45 134.88 166.89 134.87 95.19 17.03"></polygon><path class="cls-4" d="M92.37,14.72l-3.47-6.16c-4.76-6.16-12.61-5.67-17.13.43L5.68,119.64c-1.34,2.86-1.95,5.71-.94,8.56l10.09,17.16c.33-1.67,1.09-3.35,2.15-5.03L92.37,14.72Z"></path><path class="cls-4" d="M170.47,134l7.05-.05c7.23-1.44,10.27-8.62,7.18-15.5L117.39,8.39c-1.73-2.53-2.15-4.11-5.12-4.52h-20.88c1.32,1.06,2.28,2.95,3.26,4.69l75.81,125.44Z"></path><path class="cls-6" d="M24.04,138.87l-4.43,7.4c-2.32,4.71,1.14,11.71,8.54,11.96l132.82-.32c3.11,0,4.87.13,6.73-2.24l10.39-16.81c-1.58.5-3.68.29-5.63.26l-148.42-.24Z"></path><path class="cls-5" d="M151.99,147.94h4.13c.91,0,1.5-.11,1.76-.32.24-.2.37-.67.36-1.41v-1.16c0-.72-.12-1.19-.33-1.4-.21-.21-.67-.32-1.38-.32h-4.56s.02,4.61.02,4.61ZM151.99,150.37v3.11c.06.97.36,1.69.93,2.19l-9.89.03c.54-.51.86-1.25.89-2.2l-.02-10.39c-.05-.94-.35-1.66-.91-2.18l17.61-.05c1.21,0,2.13.05,2.74.15.62.1,1.14.29,1.6.57.87.51,1.32,1.3,1.36,2.33v3.36c-.03,1.03-.48,1.81-1.34,2.33-.45.28-.98.48-1.6.58-.61.1-1.54.16-2.74.16h-8.63ZM121.67,140.98c-.52.49-.8,1.22-.84,2.19v8.41c.01.65.1,1.08.27,1.29.31.3.9.45,1.77.44h6.28c.83-.02,1.37-.13,1.63-.34.26-.22.39-.69.39-1.41l-.03-8.41c-.05-.96-.33-1.69-.86-2.19h5.07c-.52.48-.81,1.21-.85,2.18l.03,8.35c0,.77-.1,1.37-.27,1.8-.18.43-.5.84-.99,1.23-.93.78-2.25,1.19-3.94,1.21l-11.01.02c-1.7,0-3.02-.41-3.96-1.19-.48-.38-.81-.79-.98-1.22-.19-.42-.28-1.03-.28-1.8l-.02-8.35c-.04-.95-.33-1.68-.86-2.19l9.45-.02ZM92.08,145.21v6.44c0,.64.09,1.07.24,1.29.29.3.85.44,1.65.43h2.56c.78,0,1.29-.12,1.54-.33.23-.21.35-.69.35-1.41l-.02-6.43c0-.65-.09-1.07-.24-1.29-.29-.3-.84-.45-1.65-.44h-2.83c-.64.01-1.07.13-1.28.36-.22.24-.32.7-.32,1.38M89.68,141.05l11.11-.02c.73,0,1.44.11,2.13.32.69.21,1.26.51,1.68.88.7.57,1.07,1.59,1.08,3.02l.02,6.31c0,1.44-.36,2.45-1.07,3.03-.42.38-.97.67-1.66.88-.69.22-1.41.33-2.14.33l-11.1.03c-.74,0-1.46-.11-2.15-.32-.69-.22-1.24-.51-1.67-.87-.7-.58-1.06-1.6-1.08-3.03v-6.31c0-1.43.36-2.45,1.06-3.02.41-.37.97-.67,1.66-.89.68-.22,1.4-.33,2.15-.33M60.99,147.16h4.43c.68,0,1.12-.09,1.32-.25.19-.16.3-.5.3-1.06v-.72c0-.73-.11-1.18-.29-1.34-.2-.16-.72-.24-1.56-.24h-4.21s.01,3.61.01,3.61ZM63.44,149.59h-2.44s0,4.11,0,4.11c.04.95.33,1.69.87,2.18l-9.66.02c.53-.51.83-1.24.87-2.18l-.03-10.4c-.04-.95-.34-1.67-.87-2.18l17.14-.04c1.18,0,2.08.05,2.68.15.6.09,1.12.29,1.56.57.85.52,1.28,1.29,1.32,2.33v3.18c0,.68-.12,1.17-.37,1.46-.42.53-1.15.8-2.15.8-.13,0-.31,0-.55-.02l2.86,4.28c.51.77,1.04,1.44,1.62,2l-9.17.03-3.68-6.29ZM44.59,141.15l.62,2.89c-.44-.2-.83-.33-1.15-.38-.32-.05-.92-.07-1.81-.07h-6.91c-.74.02-1.23.13-1.45.34-.23.22-.34.7-.34,1.42l.03,6.43c0,.64.07,1.07.22,1.29.28.3.8.44,1.55.44h1.97c.57,0,.96-.1,1.14-.29.19-.2.28-.59.28-1.19v-2.55h-1.73c-.5,0-.9.02-1.18.07-.28.04-.61.14-.98.27v-2.68l11.49-.04c-.45.5-.71,1.22-.76,2.2l.02,4.43c.04.97.3,1.7.76,2.19h-6c-.14-.4-.26-.93-.34-1.59-.06.63-.3,1.06-.73,1.28-.43.22-1.27.32-2.51.32l-5.27.02c-1.03,0-1.81-.05-2.33-.15-.52-.1-.99-.3-1.36-.56-.75-.52-1.13-1.3-1.15-2.34l-.03-8.64c.03-1.04.4-1.83,1.15-2.34.39-.27.84-.47,1.36-.58.51-.09,1.3-.15,2.32-.15l13.13-.04Z"></path><path class="cls-5" d="M78.81,20.3l-2.76,4.59,3.45,2.13c.83.47,1.58.63,2.23.48l-4.42,7.34c-.18-.67-.65-1.27-1.43-1.79l-8.65-5.36c-.8-.46-1.55-.61-2.21-.47l4.41-7.34c.16.66.64,1.26,1.43,1.79l3.16,1.96,2.77-4.59-3.17-1.96c-.82-.47-1.57-.62-2.21-.47l4.41-7.34c.17.65.64,1.26,1.42,1.78l8.65,5.35c.82.48,1.56.62,2.21.48l-4.41,7.34c-.17-.67-.64-1.26-1.44-1.79l-3.44-2.14ZM63.2,58.82c-.18-.68-.65-1.28-1.41-1.79l-8.66-5.36c-.8-.46-1.55-.6-2.23-.46l7.96-13.24c.38-.62.82-1.16,1.36-1.63.52-.46,1.05-.79,1.57-.94.84-.3,1.87-.08,3.06.65l5.24,3.26c1.19.74,1.85,1.57,1.99,2.46.09.54.06,1.16-.12,1.85-.16.69-.44,1.35-.8,1.97l-7.96,13.23ZM65.24,50.8l1.73-2.89c.4-.66.56-1.14.51-1.45-.06-.32-.39-.66-1-1.03l-5.35-3.32c-.54-.33-.94-.48-1.19-.46-.41.09-.8.47-1.21,1.15l-1.74,2.89,8.23,5.1ZM41.55,66.15l3.6-5.97,13.7,1.96c.68.07,1.38.01,2.08-.15l-4.1,6.82c-.1-.38-.31-.66-.61-.85-.34-.2-.8-.34-1.41-.41l-1.69-.18-3.36,5.57,1.19,1.89c.22.36.46.61.7.76.2.13.52.2.95.24l-2.28,3.8c-.25-.97-.7-1.99-1.34-3.06l-6.37-10.51c-.36-.04-.72,0-1.06.09M50.59,67.05l-4.85-.62,2.66,4.25,2.19-3.64ZM38.32,83.7l-1.94-4.23c-.29-.62-.65-1.08-1.07-1.34-.08-.05-.21-.12-.4-.21l2.18-3.6c0,.37.05.7.14.99.09.29.31.77.67,1.45l3.55,7.68,2.85,1.78c.82.47,1.54.66,2.16.57l-3.73,6.2c-.2-.6-.7-1.17-1.49-1.69l-2.85-1.77-8,.37c-1.23.03-2.19.12-2.85.27l4.05-6.73c.34.21.66.35.96.4.29.06.75.08,1.32.05l4.44-.19ZM35.67,104.1l-4.06,6.76c-.2-.64-.68-1.22-1.45-1.74l-8.65-5.36c-.8-.46-1.54-.63-2.19-.52l4.06-6.75c.18.63.67,1.2,1.46,1.73l8.65,5.37c.83.46,1.55.64,2.18.51M18.08,121.93l-1,1.68,3.42,2.11c.81.47,1.54.64,2.18.53l-4.01,6.64c-.2-.63-.69-1.21-1.45-1.72l-8.65-5.36c-.8-.46-1.53-.63-2.18-.53l7.08-11.77c.49-.81.9-1.4,1.24-1.76.32-.36.7-.62,1.12-.77.77-.31,1.61-.21,2.48.3l2.66,1.64c.56.34.91.69,1.06,1,.26.57.17,1.2-.24,1.89-.06.08-.13.21-.25.36l4.76.25c.84.06,1.62.04,2.33-.06l-3.79,6.3-6.75-.72ZM15.04,122.36l1.83-3.04c.29-.46.39-.81.35-1.03-.04-.22-.29-.48-.75-.75l-.6-.38c-.61-.37-1.02-.54-1.24-.49-.21.05-.49.36-.84.94l-1.75,2.9,3,1.85Z"></path><path class="cls-5" d="M183.42,122.95l-2.11,2.08c-.04-.79-.26-1.5-.63-2.12l-.44-.7-3.3-5.42c-.23-.39-.45-.64-.64-.75-.18-.1-.39-.08-.62.07l-.42.26c-.29.19-.46.39-.46.59,0,.2.17.58.49,1.12l2.36,3.87c.61,1,1.01,1.73,1.19,2.22.2.49.27.95.24,1.38-.06.84-.52,1.55-1.39,2.11l-3.28,2.04c-.84.49-1.69.54-2.52.16-.45-.22-.84-.5-1.17-.86-.32-.37-.77-1-1.31-1.9l-6.31-10.39,2.06-2.05c.07.55.21,1.04.41,1.47.19.42.6,1.16,1.22,2.19l2.77,4.56c.34.55.54.87.64.95.13.1.24.15.34.15.11,0,.26-.07.46-.19l.38-.24c.29-.18.46-.35.49-.5.04-.16-.03-.39-.2-.67l-2.68-4.43c-.57-.94-.98-1.66-1.18-2.18-.21-.51-.31-.97-.31-1.37.03-.83.51-1.55,1.45-2.15l3.29-2.05c.85-.49,1.69-.53,2.53-.15.45.2.86.5,1.17.86.33.36.76.99,1.32,1.9l6.17,10.18ZM162.3,92.67l-2.9,1.82,3.5,5.76c.7,1.15,1.34,2,1.9,2.52l-2.57,1.6c-.03-.5-.37-1.29-.99-2.34l-3.83-6.31-3.15,1.96,4.23,6.99c.4.64,1.07,1.44,2.05,2.43l-2.77.86-10.33-17.02c.7.22,1.47.12,2.26-.32l8.45-5.26c.75-.52,1.19-1.15,1.3-1.9l10.09,16.62-1.92,1.96c-.23-.65-.42-1.14-.58-1.48-.17-.33-.56-1.01-1.17-2.03l-3.56-5.87ZM146.8,84.36l-2.73,1.03-7.95-13.08c.65.13,1.38-.04,2.16-.49l8.45-5.26c.75-.51,1.22-1.09,1.4-1.73l4.22,6.94c-.62-.14-1.35.03-2.15.49l-8.26,5.13,3.26,5.35c.5.81,1.04,1.34,1.6,1.62M129.39,56.71l1.61,2.65c.37.6.7.95,1.04,1.05.12.03.25.02.35-.02.11-.04.34-.15.64-.35l.56-.36c.42-.26.68-.43.82-.55.13-.11.22-.24.27-.38.05-.14.04-.28,0-.41-.06-.14-.2-.4-.44-.79l-1.7-2.8-3.13,1.95ZM134.51,53.52l1.78,2.94c.27.44.53.69.77.75.26.06.61-.07,1.07-.35l.48-.3c.51-.32.81-.6.91-.83.09-.24.02-.56-.21-.95l-1.87-3.08-2.93,1.82ZM137.21,59.96c.45.75.75,1.32.92,1.75.16.42.23.82.22,1.19-.03.68-.41,1.27-1.16,1.73l-1.65,1.03c-.86.5-1.67.6-2.45.29-.4-.16-.76-.42-1.11-.78-.33-.36-.74-.94-1.23-1.74l-6.98-11.5c.65.11,1.35-.06,2.14-.51l8.45-5.25c.75-.51,1.22-1.08,1.41-1.71l6.98,11.51c.49.8.8,1.43.97,1.89.17.46.23.9.19,1.35-.07.84-.52,1.53-1.36,2.09l-1.19.74c-.47.29-.87.45-1.18.48-.31.02-.64-.08-1-.31-.5-.36-1.17-1.11-1.98-2.26M122.12,37.44l2.62-4.13-4.92.33,2.3,3.8ZM126.77,29.62l3.78,6.23-7.58,11.55c-.36.59-.61,1.26-.75,1.98l-4.32-7.11c.38.09.72.04,1.02-.15.33-.2.65-.56.95-1.07l.89-1.45-3.53-5.82-2.19.15c-.42.03-.74.12-.97.27-.2.12-.41.38-.62.76l-2.4-3.96c.96.24,2.06.34,3.28.28l12.06-.63c.19-.31.3-.66.36-1.01h.01ZM119.97,18.44l-2.13,2.1c-.03-.53-.13-1-.29-1.4-.16-.4-.51-1.04-1.05-1.92l-2.05-3.39c-.29-.48-.52-.81-.67-.98-.15-.17-.33-.28-.51-.34-.18-.05-.37-.05-.54,0-.17.05-.48.21-.89.47l-5.1,3.17c-.56.34-.85.73-.87,1.14-.01.4.22,1.03.73,1.87l1.95,3.19c.73,1.22,1.48,2.17,2.24,2.85l-2.66.97-6.01-9.91c-.81-1.34-1.1-2.59-.93-3.73.08-.57.26-1.04.53-1.39.25-.37.71-.75,1.33-1.13l5.13-3.2c.63-.38,1.16-.62,1.59-.7.45-.08.94-.02,1.48.16,1.09.34,2.06,1.19,2.88,2.52l5.84,9.64Z"></path><polygon class="cls-5" points="95.37 20.72 164.57 133.66 27.88 133.66 95.37 20.72"></polygon></g><g class="cls-24"><rect class="cls-3" x="24.59" y="130.66" width="144.98" height="1.83"></rect><rect class="cls-3" x="24.59" y="126.31" width="144.98" height="1.84"></rect><rect class="cls-3" x="24.59" y="121.96" width="144.98" height="1.84"></rect><rect class="cls-3" x="24.59" y="117.6" width="144.98" height="1.84"></rect><path class="cls-4" d="M24.59,113.26h144.98v1.84c-48.33,0-96.66,0-144.98,0v-1.84Z"></path><rect class="cls-3" x="24.59" y="108.91" width="144.98" height="1.84"></rect><rect class="cls-3" x="24.59" y="104.56" width="144.98" height="1.84"></rect><rect class="cls-3" x="24.59" y="100.2" width="144.98" height="1.84"></rect><rect class="cls-3" x="24.59" y="95.85" width="144.98" height="1.84"></rect><rect class="cls-21" x="24.59" y="91.5" width="144.98" height="1.84"></rect><rect class="cls-21" x="24.59" y="87.15" width="144.98" height="1.84"></rect><rect class="cls-21" x="24.59" y="82.8" width="144.98" height="1.83"></rect><rect class="cls-21" x="24.59" y="78.45" width="144.98" height="1.83"></rect><rect class="cls-21" x="24.59" y="74.1" width="144.98" height="1.83"></rect><rect class="cls-21" x="24.59" y="69.75" width="144.98" height="1.84"></rect><path class="cls-6" d="M24.59,65.39h144.98v1.84c-48.33,0-96.66,0-144.98,0v-1.84Z"></path><rect class="cls-21" x="24.59" y="61.05" width="144.98" height="1.83"></rect><rect class="cls-21" x="24.59" y="56.7" width="144.98" height="1.84"></rect><rect class="cls-21" x="24.59" y="52.34" width="144.98" height="1.84"></rect><rect class="cls-21" x="24.59" y="47.99" width="144.98" height="1.84"></rect><rect class="cls-21" x="24.59" y="43.64" width="144.98" height="1.84"></rect><rect class="cls-21" x="24.59" y="39.29" width="144.98" height="1.83"></rect><rect class="cls-21" x="24.59" y="34.94" width="144.98" height="1.83"></rect><rect class="cls-21" x="24.59" y="30.59" width="144.98" height="1.83"></rect><rect class="cls-21" x="24.59" y="26.23" width="144.98" height="1.84"></rect><rect class="cls-21" x="24.59" y="21.88" width="144.98" height="1.84"></rect><path class="cls-6" d="M120.44,84.31c6.61,0,11.98,5.46,11.98,12.16s-5.38,12.16-11.98,12.16-11.98-5.47-11.98-12.16,5.38-12.16,11.98-12.16"></path></g><g class="cls-15"><rect class="cls-3" x="105.58" y="95.26" width="27.55" height="15.02"></rect><rect class="cls-21" x="105.58" y="82.31" width="27.55" height="12.95"></rect></g><g class="cls-22"><path class="cls-5" d="M108.18,62.06c6.6,0,11.98,5.46,11.98,12.16s-5.38,12.16-11.98,12.16-11.99-5.47-11.99-12.16,5.38-12.16,11.99-12.16"></path></g><g class="cls-18"><rect class="cls-21" x="94.87" y="59.55" width="26.7" height="29.76"></rect></g><g class="cls-8"><path class="cls-5" d="M83.66,62.06c6.6,0,11.98,5.46,11.98,12.16s-5.38,12.16-11.98,12.16-11.99-5.47-11.99-12.16,5.39-12.16,11.99-12.16"></path></g><g class="cls-16"><rect class="cls-21" x="68.5" y="59.55" width="29.17" height="29.92"></rect></g><g class="cls-1"><path class="cls-6" d="M95.95,84.31c6.6,0,11.99,5.46,11.99,12.16s-5.39,12.16-11.99,12.16-11.99-5.47-11.99-12.16,5.39-12.16,11.99-12.16"></path></g><g class="cls-2"><rect class="cls-3" x="80.03" y="95.26" width="31.16" height="16.65"></rect><rect class="cls-21" x="80.03" y="82.8" width="31.16" height="12.46"></rect></g><g class="cls-17"><path class="cls-6" d="M71.38,84.31c6.59,0,11.98,5.46,11.98,12.16s-5.39,12.16-11.98,12.16-11.99-5.47-11.99-12.16,5.38-12.16,11.99-12.16"></path></g><g class="cls-10"><rect class="cls-3" x="58.68" y="95.26" width="28.28" height="15.67"></rect><rect class="cls-21" x="58.68" y="82.16" width="28.28" height="13.11"></rect></g><g class="cls-11"><path class="cls-6" d="M83.66,106.13c6.6,0,11.98,5.47,11.98,12.16s-5.38,12.16-11.98,12.16-11.99-5.47-11.99-12.16,5.39-12.16,11.99-12.16"></path></g><g class="cls-13"><rect class="cls-3" x="69.15" y="101.34" width="29.66" height="32.96"></rect></g><g class="cls-19"><path class="cls-6" d="M108.18,106.13c6.6,0,11.98,5.47,11.98,12.16s-5.38,12.16-11.98,12.16-11.99-5.47-11.99-12.16,5.38-12.16,11.99-12.16"></path></g><g class="cls-23"><rect class="cls-3" x="92.06" y="104.59" width="30.33" height="27.48"></rect></g><g class="cls-20"><rect class="cls-12" x="71.37" y="124.67" width="49.56" height=".9"></rect><rect class="cls-12" x="69.09" y="120.44" width="54.1" height=".9"></rect><rect class="cls-12" x="69.71" y="116.08" width="52.34" height=".9"></rect><rect class="cls-12" x="70.85" y="111.84" width="50.2" height=".9"></rect><rect class="cls-12" x="65.68" y="107.22" width="61.67" height=".9"></rect><rect class="cls-12" x="60.13" y="102.73" width="71.89" height=".9"></rect><rect class="cls-12" x="57.49" y="98.37" width="75.92" height=".9"></rect><rect class="cls-12" x="57.36" y="94.01" width="76.17" height=".9"></rect><rect class="cls-12" x="59" y="89.52" width="73.65" height=".9"></rect><rect class="cls-12" x="59" y="85.16" width="73.65" height=".9"></rect><rect class="cls-12" x="60.64" y="80.8" width="70.12" height=".9"></rect><rect class="cls-12" x="63.79" y="76.69" width="62.67" height=".9"></rect><rect class="cls-12" x="65.17" y="72.2" width="61.16" height=".9"></rect><rect class="cls-12" x="68.2" y="67.85" width="54.36" height=".89"></rect><rect class="cls-12" x="70.35" y="63.73" width="51.2" height=".9"></rect></g></g><g><g><path class="cls-9" d="M231.37,136.45v-30.77h17.43c3.23,0,5.7.25,7.41.76s3.09,1.44,4.13,2.8c1.05,1.37,1.57,3.03,1.57,4.99,0,1.71-.4,3.18-1.2,4.42-.8,1.24-1.9,2.24-3.3,3.01-.89.49-2.12.9-3.67,1.22,1.25.38,2.15.76,2.72,1.13.38.25.94.79,1.67,1.62.73.83,1.22,1.46,1.46,1.91l5.07,8.92h-11.82l-5.59-9.4c-.71-1.22-1.34-2.01-1.89-2.37-.75-.48-1.61-.71-2.56-.71h-.92v12.49h-10.5ZM241.88,118.15h4.41c.48,0,1.4-.14,2.77-.42.69-.13,1.26-.45,1.7-.97s.66-1.11.66-1.78c0-.99-.35-1.76-1.04-2.29s-1.99-.8-3.9-.8h-4.6v6.25Z" style="fill: rgb(255, 255, 255);"></path><path class="cls-9" d="M268.49,105.68h9.4v5.82h-9.4v-5.82ZM268.49,114.16h9.4v22.29h-9.4v-22.29Z" style="fill: rgb(255, 255, 255);"></path><path class="cls-9" d="M281.95,114.16h9.92l5.06,14.84,4.7-14.84h9.26l-9.73,23.82c-1.11,2.72-2.24,4.55-3.39,5.5-1.63,1.35-4.12,2.02-7.46,2.02-1.35,0-3.45-.17-6.28-.5l-.74-5.96c1.35.39,2.86.59,4.52.59,1.11,0,2-.23,2.69-.69.68-.46,1.27-1.29,1.74-2.48l-10.29-22.29Z" style="fill: rgb(255, 255, 255);"></path><path class="cls-9" d="M322.05,121.38l-8.98-.86c.34-1.43.83-2.55,1.47-3.37.64-.82,1.56-1.53,2.76-2.13.86-.43,2.05-.77,3.55-1.01s3.14-.36,4.9-.36c2.82,0,5.08.14,6.79.43s3.13.89,4.27,1.79c.8.63,1.43,1.52,1.89,2.68.46,1.16.69,2.26.69,3.31v9.84c0,1.05.07,1.87.22,2.47.15.6.46,1.35.96,2.28h-8.82c-.35-.57-.59-1.01-.69-1.31-.11-.3-.22-.77-.32-1.42-1.23,1.08-2.46,1.85-3.67,2.31-1.66.62-3.59.92-5.8.92-2.92,0-5.15-.62-6.66-1.85s-2.27-2.75-2.27-4.55c0-1.69.55-3.09,1.64-4.18s3.11-1.9,6.05-2.44c3.53-.64,5.81-1.09,6.86-1.35,1.05-.26,2.16-.6,3.33-1.02,0-1.05-.24-1.78-.72-2.2-.48-.42-1.32-.63-2.52-.63-1.54,0-2.69.22-3.46.67-.6.35-1.09,1.01-1.46,1.97ZM330.2,125.87c-1.29.42-2.64.79-4.04,1.11-1.91.46-3.12.92-3.63,1.36-.52.46-.79.99-.79,1.57,0,.67.26,1.22.77,1.65s1.27.64,2.28.64,2.02-.23,2.92-.69,1.54-1.02,1.92-1.69c.38-.66.57-1.53.57-2.59v-1.37Z" style="fill: rgb(255, 255, 255);"></path><path class="cls-9" d="M371.6,105.68v30.77h-8.8v-3.3c-1.23,1.4-2.36,2.34-3.37,2.83-1.36.64-2.86.97-4.53.97-3.34,0-5.89-1.16-7.65-3.46-1.76-2.31-2.64-5.11-2.64-8.42,0-3.7.97-6.52,2.92-8.48s4.42-2.94,7.42-2.94c1.46,0,2.79.22,3.98.67,1.19.45,2.25,1.12,3.18,2.01v-10.66h9.49ZM362.18,125.24c0-1.75-.41-3.05-1.22-3.92-.82-.86-1.85-1.29-3.1-1.29-1.09,0-2.01.41-2.75,1.24-.74.83-1.11,2.21-1.11,4.16,0,1.82.38,3.15,1.14,4,.76.85,1.7,1.27,2.83,1.27,1.2,0,2.2-.43,3-1.28.8-.85,1.2-2.25,1.2-4.18Z" style="fill: rgb(255, 255, 255);"></path><path class="cls-9" d="M378.08,105.68h9.4v11.34c1.28-1.2,2.55-2.06,3.81-2.58,1.26-.52,2.75-.78,4.48-.78,2.55,0,4.57.71,6.04,2.12,1.47,1.41,2.2,3.58,2.2,6.51v14.17h-9.44v-12.26c0-1.4-.28-2.39-.85-2.97-.57-.58-1.37-.87-2.4-.87-1.14,0-2.06.39-2.77,1.18s-1.06,2.19-1.06,4.22v10.71h-9.4v-30.77Z" style="fill: rgb(255, 255, 255);"></path><path class="cls-9" d="M450.06,123.86l9.17,2.52c-.62,2.34-1.58,4.29-2.91,5.86s-2.97,2.75-4.93,3.55c-1.96.8-4.46,1.2-7.49,1.2-3.68,0-6.68-.49-9.02-1.46-2.33-.97-4.35-2.68-6.04-5.13-1.69-2.45-2.54-5.58-2.54-9.4,0-5.09,1.49-9,4.47-11.74,2.98-2.73,7.19-4.1,12.64-4.1,4.26,0,7.62.78,10.06,2.35,2.44,1.57,4.25,3.97,5.44,7.22l-9.24,1.87c-.32-.94-.66-1.62-1.02-2.06-.58-.73-1.3-1.29-2.15-1.68-.85-.39-1.79-.59-2.84-.59-2.37,0-4.19.87-5.45,2.6-.96,1.29-1.43,3.31-1.43,6.06,0,3.41.57,5.75,1.71,7.01s2.74,1.9,4.8,1.9,3.51-.51,4.54-1.53c1.02-1.02,1.77-2.51,2.23-4.45Z" style="fill: rgb(255, 255, 255);"></path><path class="cls-9" d="M473.01,121.38l-8.98-.86c.34-1.43.83-2.55,1.46-3.37.64-.82,1.56-1.53,2.76-2.13.86-.43,2.05-.77,3.56-1.01,1.51-.24,3.14-.36,4.9-.36,2.82,0,5.08.14,6.79.43s3.13.89,4.27,1.79c.8.63,1.43,1.52,1.89,2.68.46,1.16.69,2.26.69,3.31v9.84c0,1.05.07,1.87.22,2.47.15.6.46,1.35.96,2.28h-8.82c-.36-.57-.59-1.01-.69-1.31s-.22-.77-.32-1.42c-1.23,1.08-2.46,1.85-3.67,2.31-1.66.62-3.59.92-5.8.92-2.92,0-5.15-.62-6.66-1.85-1.52-1.23-2.28-2.75-2.28-4.55,0-1.69.55-3.09,1.64-4.18,1.09-1.09,3.11-1.9,6.05-2.44,3.52-.64,5.81-1.09,6.86-1.35,1.05-.26,2.15-.6,3.32-1.02,0-1.05-.24-1.78-.72-2.2-.48-.42-1.32-.63-2.52-.63-1.54,0-2.69.22-3.46.67-.6.35-1.09,1.01-1.46,1.97ZM481.16,125.87c-1.29.42-2.64.79-4.04,1.11-1.91.46-3.12.92-3.62,1.36-.52.46-.79.99-.79,1.57,0,.67.26,1.22.77,1.65.52.43,1.27.64,2.27.64s2.02-.23,2.92-.69,1.54-1.02,1.92-1.69c.38-.66.56-1.53.56-2.59v-1.37Z" style="fill: rgb(255, 255, 255);"></path><path class="cls-9" d="M497.25,105.68h9.49v10.66c.94-.9,2-1.57,3.2-2.01,1.19-.45,2.51-.67,3.96-.67,2.99,0,5.46.98,7.41,2.93s2.93,4.75,2.93,8.41c0,2.44-.45,4.58-1.34,6.43-.89,1.85-2.13,3.24-3.71,4.16-1.58.91-3.33,1.37-5.25,1.37-1.65,0-3.16-.32-4.53-.97-1.03-.5-2.16-1.45-3.37-2.83v3.3h-8.8v-30.77ZM506.67,125.24c0,1.92.4,3.31,1.19,4.17.79.86,1.8,1.29,3.01,1.29,1.12,0,2.07-.42,2.83-1.27.76-.85,1.14-2.27,1.14-4.27,0-1.76-.37-3.06-1.12-3.88-.75-.82-1.65-1.24-2.71-1.24-1.28,0-2.32.43-3.13,1.29-.81.86-1.21,2.17-1.21,3.92Z" style="fill: rgb(255, 255, 255);"></path><path class="cls-9" d="M529.82,105.68h9.42v30.77h-9.42v-30.77Z" style="fill: rgb(255, 255, 255);"></path><path class="cls-9" d="M573.23,127.43h-18.84c.17,1.37.58,2.39,1.22,3.06.91.97,2.09,1.45,3.56,1.45.92,0,1.8-.21,2.63-.63.51-.27,1.05-.73,1.64-1.41l9.26.78c-1.42,2.24-3.13,3.84-5.13,4.82-2,.97-4.87,1.46-8.61,1.46-3.25,0-5.8-.42-7.67-1.25-1.86-.83-3.41-2.15-4.63-3.97-1.22-1.81-1.84-3.94-1.84-6.39,0-3.48,1.23-6.3,3.68-8.46s5.85-3.23,10.17-3.23c3.51,0,6.28.48,8.31,1.45,2.03.97,3.58,2.37,4.64,4.2s1.59,4.22,1.59,7.16v.97ZM563.67,123.33c-.18-1.65-.67-2.83-1.47-3.55-.79-.71-1.84-1.07-3.13-1.07-1.49,0-2.69.54-3.58,1.62-.57.67-.93,1.67-1.09,3h9.26Z" style="fill: rgb(255, 255, 255);"></path><path class="cls-9" d="M576.64,130.26l9.33-.8c.38,1.01.92,1.73,1.62,2.16s1.62.65,2.77.65c1.26,0,2.24-.25,2.93-.73.54-.36.81-.82.81-1.36,0-.61-.36-1.09-1.06-1.43-.51-.24-1.86-.53-4.04-.88-3.26-.52-5.53-1-6.8-1.44s-2.34-1.18-3.21-2.23c-.87-1.05-1.3-2.24-1.3-3.59,0-1.47.47-2.73,1.41-3.8.94-1.06,2.23-1.85,3.88-2.38,1.65-.52,3.86-.79,6.63-.79,2.92,0,5.08.2,6.48.61,1.39.41,2.55,1.04,3.49,1.89.93.85,1.7,2.01,2.32,3.46l-8.91.8c-.23-.71-.62-1.24-1.15-1.57-.74-.45-1.63-.67-2.68-.67s-1.83.17-2.32.51c-.49.34-.73.76-.73,1.25,0,.55.31.96.92,1.24.62.28,1.95.53,4.02.75,3.12.32,5.45.77,6.97,1.34,1.52.57,2.69,1.39,3.5,2.45.81,1.06,1.21,2.23,1.21,3.5s-.43,2.54-1.28,3.75-2.2,2.19-4.04,2.91-4.35,1.08-7.52,1.08c-4.48,0-7.67-.58-9.57-1.74-1.9-1.16-3.12-2.81-3.66-4.95Z" style="fill: rgb(255, 255, 255);"></path><path class="cls-9" d="M642.11,125.31v-6.4h16.16v13.12c-3.1,1.92-5.83,3.22-8.21,3.92-2.38.69-5.2,1.04-8.46,1.04-4.02,0-7.29-.62-9.83-1.87s-4.49-3.1-5.89-5.56c-1.39-2.46-2.09-5.29-2.09-8.48,0-3.36.76-6.28,2.29-8.76,1.52-2.48,3.76-4.37,6.7-5.66,2.29-.99,5.38-1.49,9.26-1.49s6.54.31,8.39.92c1.86.62,3.39,1.57,4.62,2.87s2.14,2.93,2.76,4.92l-10.09,1.64c-.42-1.16-1.12-2.05-2.11-2.66-.99-.62-2.26-.92-3.8-.92-2.29,0-4.12.73-5.48,2.17-1.36,1.45-2.04,3.74-2.04,6.87,0,3.33.69,5.71,2.07,7.14,1.38,1.43,3.3,2.14,5.76,2.14,1.17,0,2.28-.15,3.35-.46,1.06-.31,2.28-.83,3.65-1.57v-2.9h-7Z" style="fill: rgb(255, 255, 255);"></path><path class="cls-9" d="M664.71,114.16h8.8v3.65c.85-1.58,1.72-2.67,2.62-3.26.9-.59,2.01-.89,3.34-.89s2.9.39,4.55,1.18l-2.91,6.09c-1.11-.42-1.99-.63-2.63-.63-1.23,0-2.19.46-2.86,1.38-.97,1.3-1.46,3.74-1.46,7.3v7.47h-9.44v-22.29Z" style="fill: rgb(255, 255, 255);"></path><path class="cls-9" d="M685.97,125.37c0-3.4,1.26-6.2,3.79-8.41,2.52-2.2,5.93-3.31,10.23-3.31,4.91,0,8.62,1.29,11.13,3.88,2.02,2.09,3.02,4.65,3.02,7.7,0,3.43-1.25,6.24-3.75,8.43-2.5,2.19-5.96,3.29-10.38,3.29-3.94,0-7.13-.91-9.56-2.73-2.99-2.25-4.48-5.2-4.48-8.86ZM695.39,125.35c0,1.99.44,3.46,1.33,4.41.89.95,2,1.43,3.34,1.43s2.47-.47,3.34-1.41c.87-.94,1.3-2.44,1.3-4.51,0-1.93-.44-3.37-1.32-4.31-.88-.94-1.96-1.42-3.26-1.42-1.37,0-2.5.48-3.39,1.44-.89.96-1.34,2.42-1.34,4.38Z" style="fill: rgb(255, 255, 255);"></path><path class="cls-9" d="M745.26,136.45h-8.77v-3.61c-1.31,1.48-2.63,2.54-3.96,3.17-1.33.63-2.97.95-4.91.95-2.59,0-4.62-.7-6.09-2.11-1.47-1.41-2.2-3.57-2.2-6.5v-14.19h9.44v12.26c0,1.4.28,2.39.85,2.98.57.59,1.37.88,2.4.88,1.12,0,2.04-.39,2.76-1.18s1.07-2.19,1.07-4.22v-10.73h9.4v22.29Z" style="fill: rgb(255, 255, 255);"></path><path class="cls-9" d="M751.77,144.93v-30.77h8.8v3.29c1.21-1.38,2.33-2.32,3.35-2.81,1.37-.66,2.89-.99,4.55-.99,3.28,0,5.82,1.14,7.61,3.42,1.79,2.28,2.69,5.1,2.69,8.46,0,3.71-.98,6.54-2.93,8.49-1.96,1.95-4.43,2.93-7.41,2.93-1.45,0-2.77-.22-3.96-.67-1.19-.45-2.26-1.11-3.2-1.99v10.64h-9.49ZM761.19,125.37c0,1.76.41,3.07,1.22,3.92.82.85,1.85,1.28,3.1,1.28,1.09,0,2.01-.41,2.75-1.23.74-.82,1.11-2.21,1.11-4.17,0-1.81-.39-3.13-1.16-3.98-.77-.85-1.71-1.27-2.82-1.27-1.2,0-2.2.43-3,1.28-.8.85-1.2,2.24-1.2,4.16Z" style="fill: rgb(255, 255, 255);"></path></g><g><path class="cls-9" d="M253.4,62.63l5.54-5.05c.28-.23.49-.35.63-.35.09,0,.19.02.28.07.09.05.37.7.84,1.96.7,1.78,1.34,3.94,1.93,6.49.58,2.55.97,4.92,1.16,7.12l3.3-4.14c3.51-4.49,6.66-7.62,9.47-9.4,2.81-1.78,5.94-2.67,9.4-2.67,2.62,0,4.92.63,6.91,1.89,1.99,1.26,3.54,3.06,4.66,5.4.61,1.26,1.1,2.78,1.47,4.56.37,1.78,1.01,6.01,1.9,12.7h-37.46c-.47,4.49-2.06,7.89-4.77,10.21-2.71,2.31-6.43,3.47-11.15,3.47-4.39,0-8.09-1.38-11.08-4.14-2.99-2.76-5-6.66-6.03-11.71l2.17-4.63.56-1.12c.51-1.17.91-1.75,1.19-1.75.33,0,.56.45.7,1.33.84,4.82,2.23,8.32,4.17,10.52,1.94,2.2,4.62,3.3,8.03,3.3,5.84,0,8.77-3.02,8.77-9.05,0-1.73-.26-3.67-.77-5.82-.51-2.15-1.24-4.3-2.17-6.45-.28-.56-.42-1-.42-1.33,0-.47.26-.93.77-1.4ZM274.52,73.01h16.48c-.05-1.22-.26-2.52-.63-3.93-.37-1.4-.98-2.58-1.82-3.54-.84-.96-1.8-1.44-2.88-1.44-1.54,0-3.48,1.05-5.82,3.16-.7.61-2.48,2.52-5.33,5.75ZM286.93,48.32l-2.95,2.73c-.24.28-.54.42-.91.42-.33,0-.63-.14-.91-.42l-2.88-2.73c-.09-.09-.18-.25-.25-.46-.07-.21-.1-.39-.1-.53,0-.47.12-.82.35-1.05l2.88-2.74c.37-.28.7-.42.98-.42.33,0,.63.14.91.42l2.88,2.74c.28.37.42.7.42.98,0,.42-.14.77-.42,1.05Z" style="fill: rgb(255, 255, 255);"></path><path class="cls-9" d="M315.76,73.01v8.21h-3.86c-1.82,0-3.13-.37-3.93-1.12-.8-.75-1.26-2.01-1.4-3.79l-1.61-23.01v-.7c0-.42.09-.82.28-1.19.19-.37.42-.61.7-.7l6.1-2.17.63-.14c.09,0,.21.02.35.07.14.05.21.3.21.77l.28,21.53c.05.89.14,1.43.28,1.61.33.42.89.63,1.68.63h.28Z" style="fill: rgb(255, 255, 255);"></path><path class="cls-9" d="M335.33,81.22h-20.13v-8.21h11.71v-.77c-.05-3.04-1.19-6.01-3.44-8.91l-.21-.49.28-.49,6.38-5.4.42-.14c.23,0,.61.49,1.12,1.47.51.98,1.05,2.29,1.61,3.93,1.73,4.58,2.59,8.81,2.59,12.7,0,2.34-.12,4.44-.35,6.31ZM324.8,92.09l-2.88,2.74c-.28.23-.59.35-.91.35s-.66-.12-.98-.35l-2.81-2.74c-.28-.28-.42-.63-.42-1.05s.14-.77.42-1.05l2.88-2.74c.37-.28.68-.42.91-.42.33,0,.63.14.91.42l2.88,2.74c.28.37.42.7.42.98,0,.37-.14.75-.42,1.12ZM333.29,92.09l-2.95,2.74c-.23.23-.54.35-.91.35-.28,0-.58-.12-.91-.35l-2.88-2.74c-.23-.23-.35-.59-.35-1.05s.12-.82.35-1.05l2.88-2.74c.37-.28.7-.42.98-.42s.58.14.91.42l2.88,2.74c.28.37.42.7.42.98,0,.37-.14.75-.42,1.12Z" style="fill: rgb(255, 255, 255);"></path><path class="cls-9" d="M353.14,73.01h3.37v8.21h-.21c-.52,0-1.03-.11-1.54-.32-.52-.21-.91-.5-1.19-.88-.37,8.88-4.93,13.86-13.68,14.94l-4.56-4.49c-.93-.94-1.4-1.59-1.4-1.96,0-.33.47-.52,1.4-.56,3.41-.19,6.02-1.11,7.82-2.77,1.8-1.66,2.7-4.01,2.7-7.05,0-1.36-.3-3.13-.91-5.33-.61-2.2-1.29-3.95-2.03-5.26-.42-.7-.63-1.26-.63-1.68,0-.37.14-.7.42-.98l5.61-5.05c.14-.19.33-.3.56-.35.09,0,.2.02.32.07.12.05.39.59.81,1.61,1.45,3.69,2.5,7.65,3.16,11.85Z" style="fill: rgb(255, 255, 255);"></path><path class="cls-9" d="M355.95,81.22v-8.21h9.26l-1.68-19.29-.07-.98c0-.33.09-.65.28-.98.19-.33.4-.54.63-.63l6.17-2.53.56-.14c.33,0,.51.26.56.77l.63,31.98h-16.34Z" style="fill: rgb(255, 255, 255);"></path><path class="cls-9" d="M378.95,84.16l-2.46-30.51-.07-.98c0-.33.09-.67.28-1.02.19-.35.4-.57.63-.67l6.24-2.39.56-.14c.33,0,.49.26.49.77l.07,26.93c0,.42-.01.82-.04,1.19-.02.37-.22.84-.6,1.4l-3.79,5.26-.14.14c-.33.51-.61.77-.84.77s-.35-.26-.35-.77Z" style="fill: rgb(255, 255, 255);"></path><path class="cls-9" d="M441.66,73.01v-.77c0-1.5-.32-3.04-.95-4.63-.63-1.59-1.46-3.02-2.49-4.28l-.21-.49.28-.49,6.31-5.4.42-.14c.37,0,1.15,1.33,2.31,4,.93,2.38,1.68,4.8,2.24,7.26.56,2.45.84,4.59.84,6.42,0,2.57-.14,4.82-.42,6.73h-27.99c-5.24,0-9.27-1-12.1-3.02-2.83-2.01-4.69-5.21-5.58-9.61l6.31-6.17c.23-.23.51-.44.84-.63.33-.19.58-.28.77-.28.37,0,.56.28.56.84,0,.42-.09,1.12-.28,2.1l-.07,1.12c0,2.34.56,4.05,1.68,5.12,1.68,1.54,4.44,2.31,8.28,2.31h19.22ZM425.1,51.9l-2.88,2.73c-.28.28-.58.42-.91.42-.28,0-.61-.14-.98-.42l-2.81-2.73c-.28-.23-.42-.58-.42-1.05s.14-.79.42-.98l2.88-2.73c.28-.28.58-.42.91-.42s.63.14.91.42l2.88,2.73c.28.28.42.59.42.91,0,.47-.14.84-.42,1.12ZM433.59,51.9l-2.88,2.73c-.28.28-.61.42-.98.42-.24,0-.54-.14-.91-.42l-2.81-2.73c-.28-.23-.42-.58-.42-1.05,0-.37.14-.7.42-.98l2.81-2.73c.37-.28.7-.42.98-.42.33,0,.63.14.91.42l2.88,2.73c.28.28.42.59.42.91,0,.47-.14.84-.42,1.12Z" style="fill: rgb(255, 255, 255);"></path><path class="cls-9" d="M465.29,57.09l8.63,15.92c-1.78-12.16-2.66-19.01-2.66-20.55,0-.98.47-1.64,1.4-1.96l5.75-1.96.7-.07c.28,0,.42.26.42.77l.84,23.78h2.73v8.21h-.28c-.94,0-1.67-.29-2.21-.88-.54-.58-.83-1.39-.88-2.42-1.4,2.2-3.55,3.3-6.45,3.3h-16.97c-.89,0-1.4-.44-1.54-1.33v-6.87h11.01l-9.26-14.38c-.19-.23-.28-.54-.28-.91,0-.28.09-.54.28-.77.18-.23.4-.35.63-.35h7.15c.14,0,.32.06.53.18.21.12.36.22.46.32Z" style="fill: rgb(255, 255, 255);"></path><path class="cls-9" d="M502.75,81.22h-20.13v-8.21h11.71l.07-.91c0-2.99-1.17-5.92-3.51-8.77l-.21-.49.28-.49,6.38-5.4.42-.14c.23,0,.68.66,1.33,1.96,1.26,2.48,2.24,5.14,2.95,8,.7,2.85,1.05,5.56,1.05,8.14,0,2.34-.12,4.44-.35,6.31ZM496.93,92.09l-2.88,2.74c-.24.23-.54.35-.91.35-.33,0-.65-.12-.98-.35l-2.81-2.74c-.28-.28-.42-.63-.42-1.05,0-.33.14-.68.42-1.05l2.88-2.74c.37-.28.68-.42.91-.42.33,0,.63.14.91.42l2.88,2.74c.28.28.42.61.42.98,0,.47-.14.84-.42,1.12Z" style="fill: rgb(255, 255, 255);"></path><path class="cls-9" d="M517.97,73.01v8.21h-3.86c-1.82,0-3.13-.37-3.93-1.12s-1.26-2.01-1.4-3.79l-1.61-23.01v-.7c0-.42.09-.82.28-1.19.19-.37.42-.61.7-.7l6.1-2.17.63-.14c.09,0,.21.02.35.07.14.05.21.3.21.77l.28,21.53c.05.89.14,1.43.28,1.61.33.42.89.63,1.68.63h.28Z" style="fill: rgb(255, 255, 255);"></path><path class="cls-9" d="M532.98,59.68h17.04c2.71,0,4.98.55,6.8,1.65,1.82,1.1,3.16,2.68,4,4.73,1.17,2.95,1.75,7.76,1.75,14.45v.7h-45.17v-8.21h35.7c-.14-3.69-1.57-5.54-4.28-5.54h-22.73v-1.82c0-2.85.2-5.14.6-6.87.4-1.73,1.04-3.11,1.93-4.14,1.03-1.22,2.99-2.36,5.89-3.44,4.49-1.73,9.89-3.6,16.2-5.61l-2.6,6.1c-.05.14-.22.3-.53.49-.3.19-.62.33-.95.42l-11.29,3.93c-.66.23-1.22.62-1.68,1.16-.47.54-.7,1.06-.7,1.58v.42Z" style="fill: rgb(255, 255, 255);"></path><path class="cls-9" d="M594.77,57.72v-.49c0-.33.08-.64.25-.95.16-.3.39-.53.67-.67.47-.23,1.5-.58,3.09-1.05,1.59-.47,2.59-.7,3.02-.7.37,0,.65.15.84.46.19.3.3,1.51.35,3.61l.14,10.31.07,4.77h3.37v8.21h-.28c-1.92,0-2.95-1.12-3.09-3.37v3.37h-13.82c-.7,0-1.5-.26-2.38-.77-.89-.51-1.64-1.14-2.24-1.89-.7-.93-1.27-2.13-1.72-3.58-.45-1.45-.67-2.9-.67-4.35,0-3.74,1.1-6.83,3.3-9.26,2.2-2.43,4.98-3.65,8.35-3.65h.77ZM592.52,45.44l-2.88,2.88c-.33.23-.63.35-.91.35-.37,0-.7-.12-.98-.35l-2.81-2.88c-.28-.28-.42-.58-.42-.91s.14-.63.42-.91l2.88-2.95c.23-.23.54-.35.91-.35s.68.12.91.35l2.88,2.88c.28.28.42.61.42.98,0,.33-.14.63-.42.91ZM595.89,73.01l-.42-7.01c-.8,0-1.38.01-1.75.04-.37.02-.77.11-1.19.25-1.78.51-2.67,1.66-2.67,3.44,0,.98.25,1.78.74,2.38.49.61,1.13.91,1.93.91h3.37ZM601.01,45.44l-2.88,2.88c-.33.23-.63.35-.91.35-.37,0-.68-.12-.91-.35l-2.88-2.88c-.28-.28-.42-.58-.42-.91,0-.14.05-.3.14-.49.09-.19.19-.33.28-.42l2.88-2.95c.23-.23.54-.35.91-.35s.68.12.91.35l2.88,2.88c.28.28.42.61.42.98,0,.33-.14.63-.42.91Z" style="fill: rgb(255, 255, 255);"></path><path class="cls-9" d="M605.99,81.22v-8.21h8.56c-.66-1.5-.98-3.09-.98-4.77,0-1.54.3-3.06.91-4.56.61-1.5,1.45-2.76,2.52-3.79,2.15-2.15,5.03-3.23,8.63-3.23,2.52,0,5.38.4,8.56,1.19v3.86c0,.14-.07.23-.21.28l-.21-.07c-.84-.14-1.82-.21-2.95-.21s-2.44.19-3.82.56c-1.38.37-2.55,1.06-3.51,2.07-.96,1.01-1.44,2.14-1.44,3.4,0,1.36.47,2.57,1.4,3.65.93,1.08,2.01,1.61,3.23,1.61h12.48v7.08c0,.33-.14.6-.42.81-.28.21-.65.32-1.12.32h-31.63Z" style="fill: rgb(255, 255, 255);"></path><path class="cls-9" d="M667.29,81.22h-1.12c-.52,3.65-1.98,6.71-4.38,9.19-2.41,2.48-5.44,4.02-9.08,4.63l-4.42-4.21c-.52-.47-.91-.85-1.19-1.16-.28-.3-.42-.62-.42-.95s.42-.52,1.26-.56c1.26-.09,2.62-.37,4.07-.84,1.45-.47,2.73-1.24,3.86-2.32,1.12-1.08,1.89-2.34,2.31-3.79h-6.94c-2.01,0-3.64-.95-4.88-2.84s-1.86-4.41-1.86-7.54c0-4.21.95-7.63,2.84-10.28,1.89-2.64,4.34-3.96,7.33-3.96,3.6,0,6.5,1.8,8.7,5.4,1.87,2.99,2.85,6.66,2.94,11.01h.98v8.21ZM657.54,73.08v-2.17c0-1.96-.24-3.47-.7-4.52-.47-1.05-1.12-1.58-1.96-1.58-.8,0-1.41.39-1.86,1.16-.45.77-.67,1.84-.67,3.19,0,1.22.19,2.17.56,2.88s.87,1.05,1.47,1.05h3.16Z" style="fill: rgb(255, 255, 255);"></path><path class="cls-9" d="M666.73,73.01h7.37l-.07-1.12c0-1.68.2-3.46.6-5.33.4-1.87.9-3.44,1.51-4.7,1.68-3.46,4.39-5.19,8.14-5.19s6.72,1.45,9.08,4.35c2.36,2.9,3.77,6.9,4.24,11.99h3.37v8.21h-.28c-.94,0-1.67-.3-2.21-.91-.54-.61-.83-1.43-.88-2.46-.33,2.1-1.36,4.07-3.09,5.89-2.2,2.2-3.98,3.3-5.33,3.3-.52,0-.98-.16-1.4-.49-.42-.33-.75-.75-.98-1.26-1.26-2.71-3.6-4.07-7.01-4.07h-13.05v-8.21ZM689.53,76.31l.07-.91c0-1.17-.21-2.56-.63-4.17-.42-1.61-1.12-3.06-2.1-4.35-.98-1.29-1.96-1.93-2.95-1.93-1.87,0-2.81,1.96-2.81,5.89l.14,2.17c2.01,0,3.65.14,4.91.42s2.38,1.24,3.37,2.88Z" style="fill: rgb(255, 255, 255);"></path><path class="cls-9" d="M700.47,81.22v-8.21h27.07l-4.21-5.33c-.89-1.03-1.81-1.94-2.77-2.73-.96-.79-2.02-1.19-3.19-1.19-1.54,0-3.27.77-5.19,2.31l-2.25-3.23c1.26-1.64,3.06-3.1,5.4-4.38,2.34-1.28,4.35-1.93,6.03-1.93s3.75.94,6.07,2.81c2.32,1.87,4.5,4.3,6.56,7.29l.35.56c1.17,1.78,2.42,3.19,3.75,4.24,1.33,1.05,2.49,1.58,3.47,1.58h3.09v8.21c-1.31-.05-2.41-.43-3.3-1.16-.89-.72-1.4-1.65-1.54-2.77v2.81c0,.33-.14.6-.42.81s-.63.32-1.05.32h-37.88ZM724.11,87.25l2.88,2.74c.28.19.42.51.42.98,0,.42-.14.77-.42,1.05l-2.88,2.74c-.33.28-.63.42-.91.42s-.61-.14-.98-.42l-2.81-2.74c-.28-.23-.42-.59-.42-1.05s.14-.8.42-.98l2.81-2.74c.37-.33.7-.49.98-.49.33,0,.61.12.84.35l.07.14Z" style="fill: rgb(255, 255, 255);"></path><path class="cls-9" d="M744.16,81.22v-8.21h8.49v-1.4c0-1.59.23-3.37.7-5.33s1.12-3.65,1.96-5.05c.89-1.59,1.96-2.75,3.23-3.47,1.26-.72,2.81-1.09,4.63-1.09,3.51,0,6.43,1.31,8.77,3.93,1.36,1.64,2.44,3.85,3.26,6.63.82,2.78,1.23,5.69,1.23,8.73,0,1.26-.19,2.55-.56,3.86-.37,1.31-1.33,2.73-2.88,4.28-.8.79-1.65,1.48-2.56,2.07-.91.58-1.7.88-2.35.88-1.03,0-1.85-.59-2.46-1.75-1.17-2.71-3.51-4.07-7.01-4.07h-14.45ZM768.43,76.31l.07-.84c0-1.22-.2-2.63-.6-4.24-.4-1.61-1.09-3.06-2.07-4.35-.98-1.29-1.96-1.93-2.95-1.93-1.87,0-2.81,1.96-2.81,5.89l.07,2.17c2.01,0,3.65.14,4.91.42s2.38,1.24,3.37,2.88Z" style="fill: rgb(255, 255, 255);"></path></g></g></svg> 